<?xml version="1.0" encoding="UTF-8"?>
<svg version="1.1" xmlns="http://www.w3.org/2000/svg" width="2340" height="496">
<path d="M0 0 C772.2 0 1544.4 0 2340 0 C2340 163.68 2340 327.36 2340 496 C1567.8 496 795.6 496 0 496 C0 332.32 0 168.64 0 0 Z " fill="#000000" transform="translate(0,0)"/>
<path d="M0 0 C15.84 -0.04125 31.68 -0.0825 48 -0.125 C52.970625 -0.14320801 57.94125 -0.16141602 63.0625 -0.18017578 C69.2109375 -0.18920898 69.2109375 -0.18920898 72.10449219 -0.19088745 C74.09213155 -0.19392505 76.07976762 -0.20088795 78.06738281 -0.21115112 C93.5778488 -0.28711988 108.70162318 0.10778189 123.75 4.3125 C124.54801025 4.53123779 125.34602051 4.74997559 126.16821289 4.9753418 C148.2418889 11.20205186 164.9193831 23.51949218 176.16015625 43.45703125 C179.73843746 50.34769166 181.90036569 56.97335522 183.625 64.5 C183.8415625 65.41136719 184.058125 66.32273437 184.28125 67.26171875 C186.58597754 77.12083099 187.27581352 86.57691721 187.3125 96.6875 C187.31642761 97.71987289 187.31642761 97.71987289 187.32043457 98.77310181 C187.32522692 110.55732154 186.1932184 121.62731619 183 133 C182.68804687 134.14082031 182.37609375 135.28164062 182.0546875 136.45703125 C178.5167314 148.03714805 173.05737549 157.97633409 165 167 C163.98292969 168.15822266 163.98292969 168.15822266 162.9453125 169.33984375 C147.49724565 185.89134395 121.83859195 194.27564612 99.55518913 195.08926582 C96.9079066 195.1219521 94.2624542 195.12384381 91.61499023 195.11352539 C90.09679861 195.11370619 90.09679861 195.11370619 88.54793644 195.11389065 C85.3014658 195.11314972 82.055054 195.10555918 78.80859375 195.09765625 C76.79235868 195.09618429 74.77612323 195.09516514 72.7598877 195.09460449 C65.31908593 195.08938109 57.87829238 195.07541983 50.4375 195.0625 C33.793125 195.041875 17.14875 195.02125 0 195 C0 130.65 0 66.3 0 0 Z " fill="#FDFDFD" transform="translate(169,50)"/>
<path d="M0 0 C0.79655502 -0.00570007 1.59311005 -0.01140015 2.4138031 -0.01727295 C4.09201761 -0.02666191 5.77025004 -0.03323242 7.44848633 -0.03710938 C9.9653503 -0.04675715 12.48137577 -0.0778149 14.99804688 -0.109375 C25.21705647 -0.17655732 34.50695815 0.700985 44.43359375 3.203125 C45.2428833 3.40196289 46.05217285 3.60080078 46.88598633 3.80566406 C65.33130386 8.63444181 81.28127883 17.85948127 91.1015625 34.6328125 C96.17175548 44.41635204 96.43359375 51.96898369 96.43359375 63.203125 C76.96359375 63.203125 57.49359375 63.203125 37.43359375 63.203125 C36.77359375 59.903125 36.11359375 56.603125 35.43359375 53.203125 C32.40174557 47.83908591 27.34399824 45.50086363 21.65625 43.61328125 C12.0026764 41.83186609 1.08010635 42.30545003 -7.56640625 47.203125 C-10.89022549 49.98732592 -11.49373628 50.69443519 -12.12890625 55.140625 C-11.9430206 58.3726368 -11.56510863 59.20490922 -9.56640625 61.953125 C-3.22512222 66.70908802 3.31653121 68.95356477 10.99609375 70.640625 C11.90302979 70.84961426 12.80996582 71.05860352 13.74438477 71.27392578 C18.5331343 72.36795857 23.33336937 73.39628244 28.14453125 74.38671875 C79.94843131 85.10308944 79.94843131 85.10308944 95.12109375 107 C103.99574029 121.89672812 103.70017574 138.4063812 99.8046875 154.859375 C99.1308623 157.04641907 98.34248883 159.10353768 97.43359375 161.203125 C97.10746094 161.99847656 96.78132812 162.79382813 96.4453125 163.61328125 C93.29963674 170.60727511 88.8116877 175.79677487 83.43359375 181.203125 C82.91410156 181.75742188 82.39460937 182.31171875 81.859375 182.8828125 C73.0972808 191.39193285 59.07813244 196.54226887 47.43359375 199.203125 C46.67014648 199.37972656 45.90669922 199.55632812 45.12011719 199.73828125 C35.80301061 201.60501237 26.49603084 201.50616642 17.03564453 201.46386719 C14.20323007 201.45319896 11.37145709 201.46378404 8.5390625 201.4765625 C-5.16161976 201.48816348 -19.00265292 201.14938786 -32.19140625 197.015625 C-32.88886963 196.80131836 -33.58633301 196.58701172 -34.30493164 196.36621094 C-46.07989811 192.58173484 -55.90170212 187.15611873 -64.56640625 178.203125 C-65.15035156 177.61660156 -65.73429687 177.03007812 -66.3359375 176.42578125 C-77.8745691 164.01079788 -79.56640625 148.51026866 -79.56640625 132.203125 C-60.09640625 132.203125 -40.62640625 132.203125 -20.56640625 132.203125 C-19.90640625 136.163125 -19.24640625 140.123125 -18.56640625 144.203125 C-15.4628711 149.65528135 -12.62680853 152.91229289 -6.625 154.8203125 C4.47307912 157.56196995 20.93208322 158.32711818 31.3984375 153.25 C33.67673369 151.81333323 35.21743337 150.63544575 36.43359375 148.203125 C36.74488236 146.13091661 36.74488236 146.13091661 36.80859375 143.828125 C36.85757813 143.05726563 36.9065625 142.28640625 36.95703125 141.4921875 C36.17181257 138.05832074 34.31502493 137.10678521 31.43359375 135.203125 C19.21248681 129.03735569 5.05774464 126.83763833 -8.2109375 123.98828125 C-30.41565914 119.17751532 -54.67231294 112.81440503 -68.56640625 93.203125 C-77.26069996 78.17842388 -78.75536099 62.34996094 -75.9140625 45.28515625 C-70.78400625 28.6179778 -58.86081327 17.99893109 -44.0859375 9.83203125 C-30.58238831 3.11166026 -14.99622992 0.08579323 0 0 Z " fill="#FDFDFD" transform="translate(460.56640625,46.796875)"/>
<path d="M0 0 C29.1121875 -0.0928125 29.1121875 -0.0928125 58.8125 -0.1875 C67.98123901 -0.22846802 67.98123901 -0.22846802 77.33520508 -0.27026367 C84.8392334 -0.28381348 84.8392334 -0.28381348 88.35990906 -0.28633118 C90.80194237 -0.29091701 93.24396919 -0.30142463 95.68595886 -0.31672668 C99.39988888 -0.33882168 103.11340627 -0.34171346 106.82739258 -0.34057617 C107.90264852 -0.3513705 108.97790445 -0.36216482 110.0857439 -0.37328625 C126.87251778 -0.30489576 141.87813571 6.28708267 154.125 17.625 C169.0795606 33.39526391 171.74846317 50.81785403 171.37109375 71.6796875 C170.66461059 88.78327156 163.8410285 105.3474896 151.20703125 117.16015625 C140.40153675 126.16792246 126.51792984 132.14563867 112.29174805 132.11352539 C111.15539917 132.11340454 110.01905029 132.11328369 108.8482666 132.11315918 C107.66470581 132.10804321 106.48114502 132.10292725 105.26171875 132.09765625 C104.16589478 132.09664917 103.0700708 132.09564209 101.94104004 132.09460449 C97.85651601 132.0893815 93.77200693 132.07542023 89.6875 132.0625 C80.550625 132.041875 71.41375 132.02125 62 132 C62 152.79 62 173.58 62 195 C41.54 195 21.08 195 0 195 C0 130.65 0 66.3 0 0 Z " fill="#FEFEFE" transform="translate(595,50)"/>
<path d="M0 0 C11.55 0 23.1 0 35 0 C37.24977389 7.87420863 37.24977389 7.87420863 37.9296875 11.95043945 C38.08324707 12.85860916 38.23680664 13.76677887 38.39501953 14.70246887 C38.63260986 16.143321 38.63260986 16.143321 38.875 17.61328125 C39.04499512 18.62287399 39.21499023 19.63246674 39.39013672 20.6726532 C39.93050962 23.88531961 40.46555609 27.09884243 41 30.3125 C41.53528897 33.51529624 42.07174458 36.71788976 42.60986328 39.92021179 C42.94340494 41.90673099 43.2752231 43.89354065 43.60498047 45.88069153 C44.62000096 51.94615121 45.75692857 57.97713721 47 64 C48.61683239 57.87517421 49.81566456 51.75127746 50.875 45.5078125 C51.04499512 44.52183075 51.21499023 43.535849 51.39013672 42.51998901 C51.92959138 39.38880519 52.46505196 36.25695663 53 33.125 C53.53552676 30.00028837 54.07194548 26.87573525 54.60986328 23.75143433 C54.94309011 21.81494823 55.2748921 19.87821617 55.60498047 17.94119263 C55.75854004 17.04681488 55.91209961 16.15243713 56.0703125 15.23095703 C56.26778076 14.07468307 56.26778076 14.07468307 56.46923828 12.89505005 C57.25914084 8.58651129 58.140943 4.29528501 59 0 C70.22 0 81.44 0 93 0 C94.22871506 4.30050272 95.3266538 8.27971868 96.14501953 12.62475586 C96.34507599 13.67952621 96.54513245 14.73429657 96.75125122 15.82102966 C96.95966644 16.94098831 97.16808167 18.06094696 97.3828125 19.21484375 C97.60194305 20.38455215 97.82107361 21.55426056 98.04684448 22.75941467 C98.50747923 25.22591112 98.96627342 27.69275193 99.42333984 30.15991211 C100.12222121 33.9225396 100.83234125 37.68293504 101.54296875 41.44335938 C101.9902749 43.84622553 102.43691183 46.24921638 102.8828125 48.65234375 C103.09527618 49.77027817 103.30773987 50.88821259 103.52664185 52.0400238 C104.5809654 57.79682551 105.23989212 63.14742894 105 69 C105.66 69 106.32 69 107 69 C106.94328125 67.69289063 106.8865625 66.38578125 106.828125 65.0390625 C106.83351934 57.36022131 108.38439808 49.90173886 109.75 42.375 C110.02517453 40.82267314 110.29941786 39.27018094 110.57275391 37.7175293 C111.11938311 34.6146903 111.66941383 31.51248483 112.22167969 28.41064453 C113.31959094 22.21903747 114.3506527 16.01667446 115.375 9.8125 C115.91125 6.574375 116.4475 3.33625 117 0 C128.22 0 139.44 0 151 0 C149.87499013 10.12508881 149.87499013 10.12508881 149.05126953 14.19343567 C148.86622864 15.1171698 148.68118774 16.04090393 148.49053955 16.99263 C148.18971466 18.46351326 148.18971466 18.46351326 147.8828125 19.96411133 C147.66969421 21.02213959 147.45657593 22.08016785 147.23699951 23.17025757 C146.53676799 26.64162245 145.83096204 30.11182764 145.125 33.58203125 C144.63526288 36.00332853 144.14584714 38.42469084 143.65673828 40.84611511 C142.63355113 45.90757692 141.60784324 50.96851856 140.58007812 56.02905273 C139.26192571 62.51945408 137.94798261 69.01069787 136.63565063 75.50227833 C135.38344137 81.69580093 134.12937339 87.88894664 132.875 94.08203125 C132.63557678 95.26467875 132.39615356 96.44732624 132.1494751 97.66581154 C131.47306036 101.00503494 130.79535064 104.34399263 130.1171875 107.68286133 C129.81636261 109.16892632 129.81636261 109.16892632 129.50946045 110.68501282 C129.32441956 111.59464783 129.13937866 112.50428284 128.94873047 113.44148254 C128.78871552 114.22990949 128.62870056 115.01833643 128.46383667 115.8306551 C128.02191948 117.89748351 127.51260984 119.94956063 127 122 C114.46 122 101.92 122 89 122 C86.04531771 106.26843367 86.04531771 106.26843367 84.78320312 99.54296875 C83.92328328 94.96070887 83.06323316 90.37847372 82.20239258 85.79638672 C81.50808222 82.10066173 80.81436836 78.40482523 80.12106133 74.7089119 C79.85694896 73.30154082 79.59262466 71.8942095 79.32808113 70.4869194 C78.95651584 68.51010364 78.58578595 66.53313091 78.21508789 64.55615234 C78.00412979 63.43252289 77.79317169 62.30889343 77.57582092 61.1512146 C77.01925874 58.10539464 76.50023093 55.05552883 76 52 C75.67 52 75.34 52 75 52 C74.77782555 53.22695587 74.77782555 53.22695587 74.55116272 54.47869873 C73.15476367 62.18895471 71.75709298 69.89897886 70.35799503 77.60874557 C69.63875897 81.57237024 68.92001414 85.53608268 68.20239258 89.5 C67.50977432 93.32570371 66.81586488 97.15117117 66.12106133 100.97647858 C65.85626712 102.43561725 65.59193749 103.89484031 65.32808113 105.35414886 C64.95831461 107.39875979 64.58689439 109.44306389 64.21508789 111.48730469 C64.00412979 112.65090515 63.79317169 113.81450562 63.57582092 115.0133667 C63.12385903 117.35757541 62.57902474 119.68390104 62 122 C49.46 122 36.92 122 24 122 C20.03814094 102.68983657 20.03814094 102.68983657 18.29882812 94.20507812 C17.13012152 88.50388846 15.96126466 82.80273003 14.79125977 77.10180664 C12.36590632 65.2832413 9.94686139 53.46340886 7.53829193 41.64141083 C7.17927111 39.87968743 6.82000269 38.11801446 6.46048737 36.35639191 C5.43827948 31.34743779 4.41993512 26.33773273 3.40811348 21.32666969 C3.10002077 19.80363238 2.79062303 18.28085841 2.47984123 16.75836754 C2.05521922 14.67663242 1.63547971 12.59397178 1.21704102 10.51098633 C0.98066422 9.34368484 0.74428741 8.17638336 0.50074768 6.97370911 C0 4 0 4 0 0 Z " fill="#FCFCFC" transform="translate(615,301)"/>
<path d="M0 0 C13.16825394 10.01829392 19.48544196 24.04018325 21.859375 40.19140625 C23.82079656 61.91415002 21.25469987 83.08898619 7.50390625 100.80078125 C-1.36497806 110.67190621 -15.20992414 115.95231317 -28.25 116.81201172 C-45.84655613 117.59617777 -60.58271706 115.52111968 -74.578125 103.96484375 C-87.75291288 91.56781616 -91.43304072 75.13805762 -92.0859375 57.7265625 C-92.55070467 38.70430599 -90.32452501 21.36170779 -77.578125 6.27734375 C-58.17790743 -13.96636154 -22.81894033 -15.04671736 0 0 Z " fill="#FCFCFC" transform="translate(1898.828125,308.34765625)"/>
<path d="M0 0 C13.16825394 10.01829392 19.48544196 24.04018325 21.859375 40.19140625 C23.82079656 61.91415002 21.25469987 83.08898619 7.50390625 100.80078125 C-1.36497806 110.67190621 -15.20992414 115.95231317 -28.25 116.81201172 C-45.84655613 117.59617777 -60.58271706 115.52111968 -74.578125 103.96484375 C-87.75291288 91.56781616 -91.43304072 75.13805762 -92.0859375 57.7265625 C-92.55070467 38.70430599 -90.32452501 21.36170779 -77.578125 6.27734375 C-58.17790743 -13.96636154 -22.81894033 -15.04671736 0 0 Z " fill="#FCFCFC" transform="translate(1375.828125,308.34765625)"/>
<path d="M0 0 C13.16825394 10.01829392 19.48544196 24.04018325 21.859375 40.19140625 C23.82079656 61.91415002 21.25469987 83.08898619 7.50390625 100.80078125 C-1.36497806 110.67190621 -15.20992414 115.95231317 -28.25 116.81201172 C-45.84655613 117.59617777 -60.58271706 115.52111968 -74.578125 103.96484375 C-87.75291288 91.56781616 -91.43304072 75.13805762 -92.0859375 57.7265625 C-92.55070467 38.70430599 -90.32452501 21.36170779 -77.578125 6.27734375 C-58.17790743 -13.96636154 -22.81894033 -15.04671736 0 0 Z " fill="#FCFCFC" transform="translate(371.828125,308.34765625)"/>
<path d="M0 0 C11.83875 -0.0825 23.6775 -0.165 35.875 -0.25 C39.59507324 -0.28641602 43.31514648 -0.32283203 47.14794922 -0.36035156 C51.73657227 -0.37841797 51.73657227 -0.37841797 53.89358521 -0.3817749 C55.38069464 -0.38786488 56.86778595 -0.40182319 58.35476685 -0.42230225 C70.64838067 -0.5829566 80.19386505 0.90623407 89.95703125 8.94140625 C97.53796288 16.58031824 100.40104232 25.67994511 100.375 36.1875 C100.29955676 48.35011067 97.73480018 55.88758798 89.31640625 64.90625 C83.68097015 70 83.68097015 70 80 70 C80.30591064 70.63164062 80.61182129 71.26328125 80.92700195 71.9140625 C86.7863719 84.02771804 92.59708273 96.16342353 98.25 108.375 C98.96603394 109.90640625 98.96603394 109.90640625 99.6965332 111.46875 C100.1318335 112.41492188 100.56713379 113.36109375 101.015625 114.3359375 C101.40008789 115.16657715 101.78455078 115.9972168 102.18066406 116.85302734 C103 119 103 119 103 122 C90.46 122 77.92 122 65 122 C62.43323157 115.91411058 59.86862673 109.82740415 57.30957031 103.73828125 C56.43780303 101.66580243 55.56475958 99.59385995 54.69042969 97.52246094 C53.43611554 94.55021992 52.18635789 91.57609947 50.9375 88.6015625 C50.54377197 87.67131256 50.15004395 86.74106262 49.74438477 85.78262329 C49.20382446 84.49151138 49.20382446 84.49151138 48.65234375 83.17431641 C48.33257568 82.41486725 48.01280762 81.65541809 47.68334961 80.87295532 C47 79 47 79 47 77 C42.71 77 38.42 77 34 77 C34 91.85 34 106.7 34 122 C22.78 122 11.56 122 0 122 C0 81.74 0 41.48 0 0 Z " fill="#FCFCFC" transform="translate(896,302)"/>
<path d="M0 0 C9.9 0 19.8 0 30 0 C34.87117911 6.08897389 39.61777732 12.10174509 44.125 18.4375 C49.3527253 25.73155048 54.64340705 32.97567799 59.97900391 40.19116211 C64.35050104 46.10580949 68.67362472 52.051234 73 58 C73.33 38.86 73.66 19.72 74 0 C84.23 0 94.46 0 105 0 C105 40.26 105 80.52 105 122 C95.1 122 85.2 122 75 122 C64.93637252 111.58694101 64.93637252 111.58694101 62.390625 106.875 C59.22838418 101.30186969 55.62903107 96.27770309 51.75 91.1875 C50.61285191 89.64285364 49.47869059 88.09600362 48.34765625 86.546875 C44.49241215 81.29516327 40.57598646 76.08983439 36.64160156 70.8972168 C33.10635394 66.21270788 33.10635394 66.21270788 32 64 C31.67 83.14 31.34 102.28 31 122 C20.77 122 10.54 122 0 122 C0 81.74 0 41.48 0 0 Z " fill="#FDFDFD" transform="translate(1938,301)"/>
<path d="M0 0 C30.03 0 60.06 0 91 0 C91 9.57 91 19.14 91 29 C72.19 29 53.38 29 34 29 C34 34.61 34 40.22 34 46 C50.17 46 66.34 46 83 46 C83 55.24 83 64.48 83 74 C66.83 74 50.66 74 34 74 C34 80.27 34 86.54 34 93 C53.47 93 72.94 93 93 93 C93 102.57 93 112.14 93 122 C62.31 122 31.62 122 0 122 C0 81.74 0 41.48 0 0 Z " fill="#FDFDFD" transform="translate(1015,301)"/>
<path d="M0 0 C6.02498723 4.64725978 11.22173691 10.34757434 13.2890625 17.765625 C13.7840625 24.695625 13.7840625 24.695625 14.2890625 31.765625 C3.7290625 31.765625 -6.8309375 31.765625 -17.7109375 31.765625 C-18.3709375 29.455625 -19.0309375 27.145625 -19.7109375 24.765625 C-22.02168783 21.93309234 -23.2260735 20.92724633 -26.7109375 19.765625 C-34.41255924 19.00738096 -34.41255924 19.00738096 -41.3984375 21.765625 C-42.1615625 22.425625 -42.9246875 23.085625 -43.7109375 23.765625 C-43.68444528 27.1290519 -43.68444528 27.1290519 -42.7109375 30.765625 C-37.90094849 34.8818656 -32.93322625 35.89219573 -26.8359375 37.140625 C-10.6074399 40.76361305 4.60519098 44.71801823 14.09765625 59.45703125 C16.86459734 64.8185466 17.62178736 69.66039536 17.5390625 75.640625 C17.52782349 76.70724365 17.52782349 76.70724365 17.51635742 77.79541016 C17.28587165 89.01066752 13.44791479 99.78808054 5.2890625 107.765625 C-9.91546092 119.31409889 -29.54918923 119.77837276 -47.82421875 117.29296875 C-59.32598058 114.99261638 -69.05799958 109.57243207 -75.7109375 99.765625 C-80.04561074 91.18448409 -80.7109375 84.67284282 -80.7109375 74.765625 C-70.1509375 74.765625 -59.5909375 74.765625 -48.7109375 74.765625 C-48.0509375 77.735625 -47.3909375 80.705625 -46.7109375 83.765625 C-46.3809375 84.755625 -46.0509375 85.745625 -45.7109375 86.765625 C-41.19857359 88.80434363 -37.11841119 89.03557408 -32.2109375 89.015625 C-30.9425 89.02078125 -29.6740625 89.0259375 -28.3671875 89.03125 C-24.80703433 88.77260639 -22.02348365 88.05383739 -18.7109375 86.765625 C-18.7109375 83.465625 -18.7109375 80.165625 -18.7109375 76.765625 C-22.67259138 75.07409005 -26.64952382 73.91105567 -30.8125 72.8125 C-32.20460804 72.4368679 -33.59652924 72.06054283 -34.98828125 71.68359375 C-37.15181256 71.100186 -39.31604997 70.52082858 -41.48388672 69.95361328 C-55.72760322 66.21386199 -67.94111175 61.74691212 -76.0546875 48.5859375 C-80.90213401 39.41041376 -81.1557686 27.91186075 -78.5234375 17.94921875 C-74.7039414 7.68432299 -68.06827466 0.65902442 -58.2734375 -4.046875 C-40.25006233 -12.10923977 -16.53891921 -10.6667948 0 0 Z " fill="#FCFCFC" transform="translate(1253.7109375,307.234375)"/>
<path d="M0 0 C6.02498723 4.64725978 11.22173691 10.34757434 13.2890625 17.765625 C13.7840625 24.695625 13.7840625 24.695625 14.2890625 31.765625 C3.7290625 31.765625 -6.8309375 31.765625 -17.7109375 31.765625 C-18.3709375 29.455625 -19.0309375 27.145625 -19.7109375 24.765625 C-22.02168783 21.93309234 -23.2260735 20.92724633 -26.7109375 19.765625 C-31.71248154 19.28667023 -36.9125586 18.80426898 -41.3984375 21.390625 C-43.94537786 23.59463054 -43.94537786 23.59463054 -44.3984375 26.765625 C-43.93750653 29.84420717 -43.93750653 29.84420717 -41.8359375 31.953125 C-36.62139829 34.97755774 -31.02509895 36.17025908 -25.21875 37.6640625 C5.14396869 45.55458191 5.14396869 45.55458191 14.09765625 59.45703125 C16.86459734 64.8185466 17.62178736 69.66039536 17.5390625 75.640625 C17.52782349 76.70724365 17.52782349 76.70724365 17.51635742 77.79541016 C17.28587165 89.01066752 13.44791479 99.78808054 5.2890625 107.765625 C-9.91546092 119.31409889 -29.54918923 119.77837276 -47.82421875 117.29296875 C-59.32598058 114.99261638 -69.05799958 109.57243207 -75.7109375 99.765625 C-80.04561074 91.18448409 -80.7109375 84.67284282 -80.7109375 74.765625 C-70.1509375 74.765625 -59.5909375 74.765625 -48.7109375 74.765625 C-48.0509375 77.735625 -47.3909375 80.705625 -46.7109375 83.765625 C-46.3809375 84.755625 -46.0509375 85.745625 -45.7109375 86.765625 C-41.19857359 88.80434363 -37.11841119 89.03557408 -32.2109375 89.015625 C-30.9425 89.02078125 -29.6740625 89.0259375 -28.3671875 89.03125 C-24.80703433 88.77260639 -22.02348365 88.05383739 -18.7109375 86.765625 C-18.7109375 83.465625 -18.7109375 80.165625 -18.7109375 76.765625 C-22.43538395 75.18326473 -26.13122138 74.06489036 -30.05078125 73.06640625 C-66.94248375 63.45485883 -66.94248375 63.45485883 -76.04296875 48.58984375 C-80.92187114 39.43543679 -81.1526224 27.89995327 -78.5234375 17.94921875 C-74.7039414 7.68432299 -68.06827466 0.65902442 -58.2734375 -4.046875 C-40.25006233 -12.10923977 -16.53891921 -10.6667948 0 0 Z " fill="#FCFCFC" transform="translate(2141.7109375,307.234375)"/>
<path d="M0 0 C6.02498723 4.64725978 11.22173691 10.34757434 13.2890625 17.765625 C13.7840625 24.695625 13.7840625 24.695625 14.2890625 31.765625 C3.7290625 31.765625 -6.8309375 31.765625 -17.7109375 31.765625 C-18.3709375 29.455625 -19.0309375 27.145625 -19.7109375 24.765625 C-22.02168783 21.93309234 -23.2260735 20.92724633 -26.7109375 19.765625 C-31.71248154 19.28667023 -36.9125586 18.80426898 -41.3984375 21.390625 C-43.94537786 23.59463054 -43.94537786 23.59463054 -44.3984375 26.765625 C-43.93750653 29.84420717 -43.93750653 29.84420717 -41.8359375 31.953125 C-36.62139829 34.97755774 -31.02509895 36.17025908 -25.21875 37.6640625 C5.14396869 45.55458191 5.14396869 45.55458191 14.09765625 59.45703125 C16.86459734 64.8185466 17.62178736 69.66039536 17.5390625 75.640625 C17.52782349 76.70724365 17.52782349 76.70724365 17.51635742 77.79541016 C17.28587165 89.01066752 13.44791479 99.78808054 5.2890625 107.765625 C-9.91546092 119.31409889 -29.54918923 119.77837276 -47.82421875 117.29296875 C-59.32598058 114.99261638 -69.05799958 109.57243207 -75.7109375 99.765625 C-80.04561074 91.18448409 -80.7109375 84.67284282 -80.7109375 74.765625 C-70.1509375 74.765625 -59.5909375 74.765625 -48.7109375 74.765625 C-48.0509375 77.735625 -47.3909375 80.705625 -46.7109375 83.765625 C-46.3809375 84.755625 -46.0509375 85.745625 -45.7109375 86.765625 C-41.19857359 88.80434363 -37.11841119 89.03557408 -32.2109375 89.015625 C-30.9425 89.02078125 -29.6740625 89.0259375 -28.3671875 89.03125 C-24.80703433 88.77260639 -22.02348365 88.05383739 -18.7109375 86.765625 C-18.7109375 83.465625 -18.7109375 80.165625 -18.7109375 76.765625 C-22.43538395 75.18326473 -26.13122138 74.06489036 -30.05078125 73.06640625 C-66.94248375 63.45485883 -66.94248375 63.45485883 -76.04296875 48.58984375 C-80.92187114 39.43543679 -81.1526224 27.89995327 -78.5234375 17.94921875 C-74.7039414 7.68432299 -68.06827466 0.65902442 -58.2734375 -4.046875 C-40.25006233 -12.10923977 -16.53891921 -10.6667948 0 0 Z " fill="#FCFCFC" transform="translate(249.7109375,307.234375)"/>
<path d="M0 0 C1.6874269 0.00015917 3.37485866 0.00585622 5.06225586 0.01586914 C6.39189613 0.01799156 6.39189613 0.01799156 7.74839783 0.02015686 C10.59133215 0.02577324 13.43418892 0.03832848 16.27709961 0.05102539 C18.19962452 0.05603828 20.12215065 0.06060155 22.04467773 0.06469727 C26.7680151 0.07574798 31.49129419 0.09302356 36.21459961 0.11352539 C36.61001953 1.36617188 37.00543945 2.61881836 37.4128418 3.90942383 C41.42994691 16.63925233 41.42994691 16.63925233 45.46459961 29.36352539 C45.88286011 30.67921509 45.88286011 30.67921509 46.30957031 32.02148438 C48.10767751 37.66695176 49.92029561 43.30764494 51.74194336 48.94555664 C51.96143646 49.6250235 52.18092957 50.30449036 52.40707397 51.00454712 C53.49086628 54.35873202 54.57589808 57.71250885 55.6628418 61.06567383 C57.89853429 67.9768097 60.07917901 74.90094619 62.203125 81.84716797 C64.40355785 88.95303115 66.72900354 96.01983451 69.03491211 103.09204102 C69.41647461 104.27088867 69.79803711 105.44973633 70.19116211 106.66430664 C70.53228027 107.71271729 70.87339844 108.76112793 71.22485352 109.84130859 C72.35029467 113.5621492 73.27178553 117.34226908 74.21459961 121.11352539 C62.00459961 121.11352539 49.79459961 121.11352539 37.21459961 121.11352539 C34.21459961 109.11352539 34.21459961 109.11352539 34.21459961 104.11352539 C21.67459961 104.11352539 9.13459961 104.11352539 -3.78540039 104.11352539 C-4.11540039 107.08352539 -4.44540039 110.05352539 -4.78540039 113.11352539 C-5.77540039 115.75352539 -6.76540039 118.39352539 -7.78540039 121.11352539 C-19.00540039 121.11352539 -30.22540039 121.11352539 -41.78540039 121.11352539 C-41.08788618 116.2309259 -40.4500827 112.63320332 -38.89477539 108.12133789 C-38.51772461 107.01338867 -38.14067383 105.90543945 -37.75219727 104.76391602 C-37.14988281 103.01884766 -37.14988281 103.01884766 -36.53540039 101.23852539 C-32.71158732 89.98836703 -32.71158732 89.98836703 -29.28540039 78.61352539 C-27.18569832 71.20071315 -24.74530127 63.91384417 -22.28540039 56.61352539 C-19.59968127 48.63881234 -16.98922203 40.66907122 -14.67700195 32.57836914 C-12.75180756 25.88492219 -10.64922399 19.2495033 -8.53540039 12.61352539 C-8.00450806 10.93589111 -8.00450806 10.93589111 -7.46289062 9.22436523 C-7.1310376 8.18747559 -6.79918457 7.15058594 -6.45727539 6.08227539 C-6.15917969 5.14834961 -5.86108398 4.21442383 -5.55395508 3.25219727 C-4.25976187 -0.34917902 -4.20311862 0.1260529 0 0 Z " fill="#FCFCFC" transform="translate(810.785400390625,301.886474609375)"/>
<path d="M0 0 C11.22 0 22.44 0 34 0 C34.05607422 8.05535156 34.05607422 8.05535156 34.11328125 16.2734375 C34.1435851 19.69143731 34.17474871 23.10938657 34.20898438 26.52734375 C34.26315041 31.94316956 34.31426611 37.35889538 34.34643555 42.77490234 C34.3725943 47.14525 34.41308395 51.51525864 34.46318626 55.88539505 C34.47977046 57.54615664 34.49133701 59.20697676 34.49761391 60.8678093 C34.30118723 76.02521319 34.30118723 76.02521319 40.4375 89.5 C44.04680031 93.02126859 46.70607747 94.29468276 51.75 94.375 C57.02537187 94.21961349 60.85284895 93.32859593 65 90 C71.62312176 81.68388071 70.73327462 71.54946087 70.70703125 61.5234375 C70.72016537 59.74409302 70.73547482 57.9647634 70.75285339 56.18545532 C70.79251603 51.53302053 70.80288168 46.88097743 70.80688477 42.22839355 C70.81625173 37.46854918 70.85368739 32.70893157 70.88867188 27.94921875 C70.95305701 18.63276918 70.98385492 9.31665817 71 0 C82.22 0 93.44 0 105 0 C105.11352756 10.82354289 105.20501725 21.64668223 105.25906086 32.47068882 C105.28501549 37.49818326 105.32015124 42.52524483 105.37719727 47.55249023 C105.43202633 52.41549291 105.46152644 57.27808255 105.47438622 62.14137077 C105.48353569 63.98511178 105.50139905 65.8288334 105.52865028 67.67239571 C105.75721124 83.79432607 103.74393502 98.64575372 92.19140625 110.921875 C81.41380325 121.07060378 67.67243009 124.58494718 53.1875 124.4375 C52.13868652 124.42992676 51.08987305 124.42235352 50.00927734 124.41455078 C35.6462892 124.11065435 23.46191035 120.19575313 12.75 110.3125 C0.09719713 96.81617693 -0.452677 80.24297262 -0.29296875 62.79296875 C-0.28736037 60.97309217 -0.28309616 59.15321101 -0.28010559 57.33332825 C-0.2687545 52.58717933 -0.2393734 47.84131415 -0.20599365 43.09527588 C-0.17508057 38.23478023 -0.16155526 33.37423789 -0.14648438 28.51367188 C-0.11449246 19.00897107 -0.06180638 9.50455372 0 0 Z " fill="#FCFCFC" transform="translate(1513,301)"/>
<path d="M0 0 C28.05 0 56.1 0 85 0 C85 9.57 85 19.14 85 29 C68.17 29 51.34 29 34 29 C34 35.93 34 42.86 34 50 C48.52 50 63.04 50 78 50 C78 59.24 78 68.48 78 78 C63.48 78 48.96 78 34 78 C34 92.52 34 107.04 34 122 C22.78 122 11.56 122 0 122 C0 81.74 0 41.48 0 0 Z " fill="#FDFDFD" transform="translate(412,301)"/>
<path d="M0 0 C33.99 0 67.98 0 103 0 C103 10.23 103 20.46 103 31 C91.78 31 80.56 31 69 31 C69 61.03 69 91.06 69 122 C57.78 122 46.56 122 35 122 C35 91.97 35 61.94 35 31 C23.45 31 11.9 31 0 31 C0 20.77 0 10.54 0 0 Z " fill="#FDFDFD" transform="translate(1632,301)"/>
<path d="M0 0 C33.99 0 67.98 0 103 0 C103 10.23 103 20.46 103 31 C91.78 31 80.56 31 69 31 C69 61.03 69 91.06 69 122 C57.78 122 46.56 122 35 122 C35 91.97 35 61.94 35 31 C23.45 31 11.9 31 0 31 C0 20.77 0 10.54 0 0 Z " fill="#FDFDFD" transform="translate(506,301)"/>
<path d="M0 0 C11.22 0 22.44 0 34 0 C34 30.03 34 60.06 34 91 C51.82 91 69.64 91 88 91 C88 101.23 88 111.46 88 122 C58.96 122 29.92 122 0 122 C0 81.74 0 41.48 0 0 Z " fill="#FCFCFC" transform="translate(1415,301)"/>
<path d="M0 0 C40.16511194 0 40.16511194 0 50.02734375 9.59375 C57.30250771 18.46800941 60.28720217 29.06892578 60.37109375 40.34765625 C60.38463646 41.50919472 60.38463646 41.50919472 60.39845276 42.69419861 C60.4128705 44.32530917 60.42182072 45.95647644 60.42553711 47.58764648 C60.43735635 50.03278169 60.48655528 52.47532314 60.53710938 54.91992188 C60.66539385 67.41215606 59.16643341 80.42551952 50.72265625 90.359375 C36.22888675 104.162965 20.32001824 101 0 101 C0 67.67 0 34.34 0 0 Z " fill="#010101" transform="translate(232,97)"/>
<path d="M0 0 C2.97 0 5.94 0 9 0 C9 163.35 9 326.7 9 495 C6.03 495 3.06 495 0 495 C0 331.65 0 168.3 0 0 Z " fill="#787878" transform="translate(2331,0)"/>
<path d="M0 0 C2.97 0 5.94 0 9 0 C9 163.35 9 326.7 9 495 C6.03 495 3.06 495 0 495 C0 331.65 0 168.3 0 0 Z " fill="#787878" transform="translate(0,0)"/>
<path d="M0 0 C11.22 0 22.44 0 34 0 C34 40.26 34 80.52 34 122 C22.78 122 11.56 122 0 122 C0 81.74 0 41.48 0 0 Z " fill="#FDFDFD" transform="translate(1753,301)"/>
<path d="M0 0 C6.78714784 3.99162178 9.98149568 9.14827966 12.09204102 16.59277344 C13.13114856 21.55697233 13.07979227 26.4475534 13 31.5 C13.00322266 32.52416016 13.00644531 33.54832031 13.00976562 34.60351562 C12.94094268 44.39514343 11.84888886 52.58440033 5.6875 60.4375 C0.97891692 65.02535018 -3.71473199 66.51512934 -10.1875 66.8125 C-16.49444372 66.67002386 -20.94566245 64.60710109 -25.5625 60.375 C-31.06341239 51.14132564 -31.91925389 42.40451792 -31.75 31.8125 C-31.75708984 30.554375 -31.76417969 29.29625 -31.77148438 28 C-31.71265399 19.36550892 -30.93154483 12.40348218 -26.125 5.125 C-18.83050742 -1.84529291 -9.54696188 -4.21672695 0 0 Z " fill="#020202" transform="translate(1873.3125,329.5625)"/>
<path d="M0 0 C6.78714784 3.99162178 9.98149568 9.14827966 12.09204102 16.59277344 C13.13114856 21.55697233 13.07979227 26.4475534 13 31.5 C13.00322266 32.52416016 13.00644531 33.54832031 13.00976562 34.60351562 C12.94094268 44.39514343 11.84888886 52.58440033 5.6875 60.4375 C0.97891692 65.02535018 -3.71473199 66.51512934 -10.1875 66.8125 C-16.49444372 66.67002386 -20.94566245 64.60710109 -25.5625 60.375 C-31.06341239 51.14132564 -31.91925389 42.40451792 -31.75 31.8125 C-31.75708984 30.554375 -31.76417969 29.29625 -31.77148438 28 C-31.71265399 19.36550892 -30.93154483 12.40348218 -26.125 5.125 C-18.83050742 -1.84529291 -9.54696188 -4.21672695 0 0 Z " fill="#020202" transform="translate(1350.3125,329.5625)"/>
<path d="M0 0 C6.78714784 3.99162178 9.98149568 9.14827966 12.09204102 16.59277344 C13.13114856 21.55697233 13.07979227 26.4475534 13 31.5 C13.00322266 32.52416016 13.00644531 33.54832031 13.00976562 34.60351562 C12.94094268 44.39514343 11.84888886 52.58440033 5.6875 60.4375 C0.97891692 65.02535018 -3.71473199 66.51512934 -10.1875 66.8125 C-16.49444372 66.67002386 -20.94566245 64.60710109 -25.5625 60.375 C-31.06341239 51.14132564 -31.91925389 42.40451792 -31.75 31.8125 C-31.75708984 30.554375 -31.76417969 29.29625 -31.77148438 28 C-31.71265399 19.36550892 -30.93154483 12.40348218 -26.125 5.125 C-18.83050742 -1.84529291 -9.54696188 -4.21672695 0 0 Z " fill="#020202" transform="translate(346.3125,329.5625)"/>
<path d="M0 0 C1.32 0 2.64 0 4 0 C4 163.35 4 326.7 4 495 C2.68 495 1.36 495 0 495 C0 331.65 0 168.3 0 0 Z " fill="#434343" transform="translate(2331,0)"/>
<path d="M0 0 C1.32 0 2.64 0 4 0 C4 163.35 4 326.7 4 495 C2.68 495 1.36 495 0 495 C0 331.65 0 168.3 0 0 Z " fill="#454545" transform="translate(5,0)"/>
<path d="M0 0 C7.6725 -0.12375 7.6725 -0.12375 15.5 -0.25 C17.09779297 -0.28641602 18.69558594 -0.32283203 20.34179688 -0.36035156 C27.84075654 -0.41890767 33.6222642 -0.37170612 40 4 C44.70811589 8.83201368 46.3003465 13.56981756 46.4375 20.25 C46.32297884 26.5701363 45.1679175 31.16354435 41 36 C35.32109763 40.64402267 29.24965021 41.12885308 22.16796875 41.09765625 C21.00289795 41.09515869 19.83782715 41.09266113 18.63745117 41.09008789 C16.43472534 41.07643188 16.43472534 41.07643188 14.1875 41.0625 C9.505625 41.041875 4.82375 41.02125 0 41 C0 27.47 0 13.94 0 0 Z " fill="#050505" transform="translate(657,96)"/>
<path d="M0 0 C1.90234375 1.09765625 1.90234375 1.09765625 4.46484375 3.09765625 C4.46484375 4.74765625 4.46484375 6.39765625 4.46484375 8.09765625 C5.45484375 8.09765625 6.44484375 8.09765625 7.46484375 8.09765625 C9.26823358 24.3925715 9.26823358 24.3925715 5.46484375 30.09765625 C-0.14336077 35.10998904 -4.67151113 37.45244502 -12.23828125 37.390625 C-15.90301709 36.9231842 -17.77101532 35.50742013 -20.53515625 33.09765625 C-20.53515625 32.43765625 -20.53515625 31.77765625 -20.53515625 31.09765625 C-21.52515625 30.76765625 -22.51515625 30.43765625 -23.53515625 30.09765625 C-26.00067692 26.71897978 -26.53515625 25.39207423 -26.53515625 21.09765625 C-27.85515625 20.76765625 -29.17515625 20.43765625 -30.53515625 20.09765625 C-31.26799021 15.97546521 -31.03950828 13.97996553 -28.9296875 10.2890625 C-21.59034322 -0.07965465 -12.95466207 -4.61098142 0 0 Z " fill="#313131" transform="translate(1149.53515625,141.90234375)"/>
<path d="M0 0 C5.66777412 1.34988208 10.78462118 2.86154635 14.07421875 7.95703125 C15.95432677 12.34615667 17.53266217 16.84726274 16.55859375 21.609375 C14.70126295 24.52216316 12.70131987 27.03801194 9.55859375 28.609375 C1.2321707 29.51865677 -4.67502963 28.59439941 -11.44140625 23.609375 C-12.45203125 22.866875 -13.46265625 22.124375 -14.50390625 21.359375 C-16.82153262 18.06984079 -17.41732314 16.02730686 -17.17578125 12.03515625 C-14.83512922 4.30353438 -8.0186441 -0.85065179 0 0 Z " fill="#7A7A7A" transform="translate(1269.44140625,210.390625)"/>
<path d="M0 0 C4.04278926 -0.13516012 8.08104554 -0.23421548 12.125 -0.3125 C13.83816406 -0.3753418 13.83816406 -0.3753418 15.5859375 -0.43945312 C25.09686793 -0.57769339 25.09686793 -0.57769339 28.765625 2.17578125 C31.90635923 6.14562539 31.73179744 8.51890742 31.46875 13.3984375 C30.84736017 16.84715104 29.6141087 18.6934335 27 21 C24.33821779 22.3308911 22.31260604 22.11268993 19.3359375 22.09765625 C18.21445312 22.09443359 17.09296875 22.09121094 15.9375 22.08789062 C14.761875 22.07951172 13.58625 22.07113281 12.375 22.0625 C11.19164062 22.05798828 10.00828125 22.05347656 8.7890625 22.04882812 C5.85935361 22.03701478 2.92967059 22.0190789 0 22 C0 14.74 0 7.48 0 0 Z " fill="#030303" transform="translate(930,330)"/>
<path d="M0 0 C0.66 0 1.32 0 2 0 C4.51874836 9.24528809 6.91292751 18.51968949 9.25 27.8125 C9.52021973 28.88048828 9.79043945 29.94847656 10.06884766 31.04882812 C10.44468994 32.55026367 10.44468994 32.55026367 10.828125 34.08203125 C11.0540332 34.98155518 11.27994141 35.8810791 11.51269531 36.80786133 C12 39 12 39 12 41 C4.74 41 -2.52 41 -10 41 C-8.95658942 34.73953649 -7.53851607 28.65092282 -6.04370117 22.48681641 C-5.5640404 20.50636012 -5.08943482 18.52473862 -4.61523438 16.54296875 C-4.15793945 14.64998047 -4.15793945 14.64998047 -3.69140625 12.71875 C-3.41498291 11.57341797 -3.13855957 10.42808594 -2.85375977 9.24804688 C-2.02925298 6.11129016 -1.06189033 3.06362462 0 0 Z " fill="#040404" transform="translate(825,338)"/>
<path d="M0 0 C3.88606978 1.18741021 5.69294219 3.73829758 8 7 C9.36181516 11.08544547 9.75520232 14.7379671 9 19 C5.71076091 23.15482832 3.13822175 24.25370809 -2.0625 25 C-6.24531098 25.23272783 -8.70658616 24.77881793 -12 22 C-14.9627504 19.0372496 -14.93004595 16.75550376 -15.3125 12.625 C-14.93891566 8.29142171 -13.68178352 6.371385 -11 3 C-10.5875 2.38125 -10.175 1.7625 -9.75 1.125 C-6.74354232 -0.8077228 -3.41788948 -0.38823897 0 0 Z " fill="#BBBBBB" transform="translate(1143,146)"/>
<path d="M0 0 C1.0209375 0.13535156 1.0209375 0.13535156 2.0625 0.2734375 C4 0.625 4 0.625 7 1.625 C7.31324219 2.27082031 7.62648438 2.91664063 7.94921875 3.58203125 C9.25792395 6.12646553 10.17420876 6.35908309 12.8125 7.3125 C17.92728917 9.63232241 19.95977676 13.54405942 22 18.625 C22 19.285 22 19.945 22 20.625 C22.66 20.625 23.32 20.625 24 20.625 C24.495 22.11 24.495 22.11 25 23.625 C21.87692298 28.75316538 16.35703326 33.94648337 11 36.625 C3.07911434 37.37878163 -3.12817046 36.67728116 -10 32.625 C-10.69609375 32.21636719 -11.3921875 31.80773437 -12.109375 31.38671875 C-14.0625 30.125 -14.0625 30.125 -17 27.625 C-17 26.305 -17 24.985 -17 23.625 C-17.66 23.625 -18.32 23.625 -19 23.625 C-19.86028391 10.73985884 -19.86028391 10.73985884 -16.9375 7.0625 C-11.96837147 2.93918058 -6.7185579 -0.94161607 0 0 Z M-16 13.625 C-17.19398123 16.97370084 -17.28168612 19.29626069 -16 22.625 C-13.68672276 25.52926048 -11.06376628 27.55443268 -8 29.625 C-7.0925 30.264375 -6.185 30.90375 -5.25 31.5625 C-0.1819724 33.21935518 4.7315053 33.43781124 10 32.625 C13.17281852 30.45700792 13.17281852 30.45700792 15 27.625 C15.66 26.965 16.32 26.305 17 25.625 C17.23846212 20.04952847 15.96782543 14.30157341 13 9.625 C7.85021911 5.78695575 1.93543639 3.52824442 -4.52734375 3.88671875 C-9.7482696 5.44557339 -13.08387567 9.16623914 -16 13.625 Z " fill="#252525" transform="translate(1269,206.375)"/>
<path d="M0 0 C1.155 0.268125 2.31 0.53625 3.5 0.8125 C7.58523186 2.19856081 9.41803168 3.55737557 12 7 C12.5 10.1875 12.5 10.1875 12 13 C8.29789441 15.4680704 5.40887746 15.33179675 1.125 15.3125 C0.06345703 15.33666992 0.06345703 15.33666992 -1.01953125 15.36132812 C-7.21991155 15.36710129 -10.16507684 13.5087146 -14.8125 9.6875 C-17 7 -17 7 -17.4375 3.8125 C-17 1 -17 1 -15 -1 C-9.68196681 -2.89929757 -5.05157777 -2.21776585 0 0 Z " fill="#E8E8E8" transform="translate(1080,283)"/>
<path d="M0 0 C0.80244141 0.00966797 1.60488281 0.01933594 2.43164062 0.02929688 C3.68170898 0.06700195 3.68170898 0.06700195 4.95703125 0.10546875 C6.22450195 0.12577148 6.22450195 0.12577148 7.51757812 0.14648438 C9.60183509 0.18181076 11.68576402 0.23561736 13.76953125 0.29296875 C17.68619983 8.19624643 19.69294872 16.36029444 16.890625 25.00390625 C15.22815452 28.39835817 13.27029333 30.07192372 9.76953125 31.29296875 C4.7526792 31.98143129 -0.52243707 32.46766196 -5.265625 30.41015625 C-10.26873842 26.54585893 -12.8891172 21.44348351 -13.85546875 15.35546875 C-13.60809862 10.26953896 -10.53879048 6.92326827 -7.23046875 3.29296875 C-6.78960938 2.76767578 -6.34875 2.24238281 -5.89453125 1.70117188 C-3.78562436 -0.08347821 -2.73003449 -0.05808584 0 0 Z M-7.23046875 7.29296875 C-9.70657433 10.83026244 -9.52762356 14.05851274 -9.23046875 18.29296875 C-8.1954842 21.79599337 -7.02660094 23.95532475 -4.23046875 26.29296875 C0.13903582 27.63091782 4.38893518 27.7633161 8.64453125 26.04296875 C11.31489312 24.5475661 12.90413517 23.63020031 14.76953125 21.29296875 C15.56435084 17.13185442 15.23377141 13.33750911 13.51953125 9.48046875 C11.21694157 6.60223164 9.10119413 3.95880019 5.76953125 2.29296875 C-0.59997916 1.66645953 -3.11538939 1.96757193 -7.23046875 7.29296875 Z " fill="#474747" transform="translate(1137.23046875,143.70703125)"/>
<path d="M0 0 C1.46806343 0.49458822 2.93167844 1.00257026 4.390625 1.5234375 C5.13183594 1.75933594 5.87304688 1.99523437 6.63671875 2.23828125 C11.72648239 4.02015541 14.14812744 5.89422004 16.640625 10.8984375 C17.42259773 13.97779217 17.12170206 15.63780411 16.640625 18.8984375 C11.66803317 23.30273312 5.05016647 23.12253859 -1.296875 23.2109375 C-1.98716797 23.23994141 -2.67746094 23.26894531 -3.38867188 23.29882812 C-8.53700972 23.36226736 -11.44918283 22.21165377 -15.359375 18.8984375 C-15.689375 17.9084375 -16.019375 16.9184375 -16.359375 15.8984375 C-17.019375 15.8984375 -17.679375 15.8984375 -18.359375 15.8984375 C-20.48701946 12.44101526 -21.14631235 9.91181798 -20.359375 5.8984375 C-14.64722147 -1.45633013 -8.67543921 -2.47288747 0 0 Z M-16.359375 5.8984375 C-17.03104207 8.64147646 -17.03104207 8.64147646 -16.359375 11.8984375 C-13.56935993 15.57108468 -10.76506682 18.42987356 -6.359375 19.8984375 C-3.68014254 20.02047881 -1.03836204 20.08355406 1.640625 20.0859375 C2.72730469 20.10430664 2.72730469 20.10430664 3.8359375 20.12304688 C7.64762798 20.13359583 9.3942554 20.0626839 12.640625 17.8984375 C13.259242 14.8740877 13.27241562 12.91313152 11.609375 10.2421875 C8.10315091 6.26846686 4.7622987 5.04013079 -0.40625 4.22265625 C-2.359375 3.8984375 -2.359375 3.8984375 -4.359375 2.8984375 C-8.63554892 2.61335924 -13.13088324 2.66994574 -16.359375 5.8984375 Z " fill="#4B4B4B" transform="translate(1079.359375,278.1015625)"/>
<path d="M0 0 C3.1875 1.375 3.1875 1.375 5 3 C5 3.66 5 4.32 5 5 C6.8871875 5.4640625 6.8871875 5.4640625 8.8125 5.9375 C11.26177394 6.53978048 13.60265923 7.20088641 16 8 C16 8.66 16 9.32 16 10 C16.66 10 17.32 10 18 10 C21.05067873 15.33514048 22.89487378 19.79755312 23 26 C21.859375 27.71875 21.859375 27.71875 20 29 C17.30078125 29.29296875 17.30078125 29.29296875 14.3125 29.1875 C12.82169922 29.14689453 12.82169922 29.14689453 11.30078125 29.10546875 C10.54152344 29.07066406 9.78226563 29.03585937 9 29 C9 28.67 9 28.34 9 28 C11.97 27.01 14.94 26.02 18 25 C18.46249155 19.51423042 18.46249155 19.51423042 16.5 14.625 C16.005 14.08875 15.51 13.5525 15 13 C15 12.34 15 11.68 15 11 C14.443125 10.89042969 13.88625 10.78085937 13.3125 10.66796875 C9.35892627 9.84653367 5.66653907 8.93926887 1.9375 7.375 C-2.37241828 5.72457494 -5.37753326 5.33964761 -10 6 C-12.87580523 7.58796835 -15.03368258 9.36225712 -17 12 C-17.57706878 15.60667989 -17.06774436 18.52983082 -16 22 C-15.34 22 -14.68 22 -14 22 C-13.54625 22.61875 -13.0925 23.2375 -12.625 23.875 C-10.89720611 26.13442278 -9.59186772 26.92750301 -7 28 C-8.625 28.75 -8.625 28.75 -11 29 C-16.39776655 26.30111673 -18.36101967 23.18022066 -21 18 C-21.33 17.67 -21.66 17.34 -22 17 C-22.375 13.75 -22.375 13.75 -22 10 C-19.875 7.375 -19.875 7.375 -17 5 C-16.13375 4.071875 -15.2675 3.14375 -14.375 2.1875 C-10.20023054 -1.24990758 -5.10491612 -0.72927373 0 0 Z " fill="#323232" transform="translate(1077,272)"/>
<path d="M0 0 C4.40749725 1.18473526 7.2215737 3.43641745 10.44140625 6.65625 C11.00615445 12.86848022 11.00615445 12.86848022 9.21484375 15.3671875 C6.91835779 17.03643941 5.56166783 16.96582659 2.75390625 16.84375 C1.94566406 16.81667969 1.13742187 16.78960937 0.3046875 16.76171875 C-0.31019531 16.72691406 -0.92507813 16.69210938 -1.55859375 16.65625 C-1.55859375 15.99625 -1.55859375 15.33625 -1.55859375 14.65625 C-2.63109375 14.553125 -3.70359375 14.45 -4.80859375 14.34375 C-10.23777464 13.34840017 -10.23777464 13.34840017 -12.55859375 10.65625 C-13.33182326 6.70418804 -12.8542537 5.11945059 -10.68359375 1.71875 C-6.73120206 -0.88982852 -4.56960561 -0.70825482 0 0 Z " fill="#EFEFEF" transform="translate(1271.55859375,217.34375)"/>
<path d="M0 0 C3.3125 1 3.3125 1 5.3125 4 C6.3025 4.33 7.2925 4.66 8.3125 5 C8.60031083 8.05079478 8.72793631 10.95706395 8.3125 14 C5.59604099 16.80134835 3.01386705 17.19830097 -0.75 17.4375 C-4.6875 17 -4.6875 17 -7.1875 15.5 C-9.28151202 12.00997997 -9.56651716 8.90160249 -8.6875 5 C-5.99588386 1.00335786 -4.86804936 0 0 0 Z " fill="#F5F5F5" transform="translate(1140.6875,150)"/>
<path d="M0 0 C1.155 0.268125 2.31 0.53625 3.5 0.8125 C7.58523186 2.19856081 9.41803168 3.55737557 12 7 C12.5 10.1875 12.5 10.1875 12 13 C8.29789441 15.4680704 5.40887746 15.33179675 1.125 15.3125 C0.06345703 15.33666992 0.06345703 15.33666992 -1.01953125 15.36132812 C-7.21991155 15.36710129 -10.16507684 13.5087146 -14.8125 9.6875 C-17 7 -17 7 -17.4375 3.8125 C-17 1 -17 1 -15 -1 C-9.68196681 -2.89929757 -5.05157777 -2.21776585 0 0 Z M-13 1 C-13.50169415 3.83073436 -13.50169415 3.83073436 -13 7 C-10.44975635 10.10164769 -8.82300753 11.72566416 -5 13 C-3.1485555 13.11829437 -1.29267862 13.17514861 0.5625 13.1875 C2.01849609 13.20876953 2.01849609 13.20876953 3.50390625 13.23046875 C6.17398916 13.25207746 6.17398916 13.25207746 8 11 C8.38286803 7.26703674 8.14915785 6.22373677 6 3 C1.75304652 1.08176636 -9.10734549 -2.89265451 -13 1 Z " fill="#989898" transform="translate(1080,283)"/>
<path d="M0 0 C4.60038032 1.40440653 8.2656426 4.0941079 11.3671875 7.72265625 C12.35947821 10.73335648 12.62705427 13.5655514 12.3671875 16.72265625 C10.4296875 19.78515625 10.4296875 19.78515625 7.3671875 21.72265625 C0.23236437 22.5282008 -6.83413179 21.19592422 -12.6328125 16.72265625 C-14.47175365 13.39504846 -15.43462767 10.46446036 -14.6328125 6.72265625 C-10.78146235 0.67938013 -7.05754629 -1.27636475 0 0 Z M-12.6328125 6.72265625 C-13.5496588 9.76640358 -13.5496588 9.76640358 -12.6328125 12.72265625 C-9.67026012 15.3407258 -7.72246629 16.62790375 -3.7578125 16.97265625 C-2.7059375 16.84890625 -2.7059375 16.84890625 -1.6328125 16.72265625 C-1.6328125 17.38265625 -1.6328125 18.04265625 -1.6328125 18.72265625 C-0.19625396 18.80397088 1.2416358 18.86199184 2.6796875 18.91015625 C3.48019531 18.94496094 4.28070312 18.97976562 5.10546875 19.015625 C7.42294068 18.90076622 7.42294068 18.90076622 9.1328125 17.42578125 C11.21363985 14.5547663 10.78622507 12.13481931 10.3671875 8.72265625 C7.53390195 4.47272793 3.13041976 3.01250638 -1.6328125 1.72265625 C-7.13459336 0.8596318 -9.3397617 2.26735222 -12.6328125 6.72265625 Z " fill="#9C9C9C" transform="translate(1271.6328125,215.27734375)"/>
<path d="M0 0 C4.40749725 1.18473526 7.2215737 3.43641745 10.44140625 6.65625 C11.00615445 12.86848022 11.00615445 12.86848022 9.21484375 15.3671875 C6.91835779 17.03643941 5.56166783 16.96582659 2.75390625 16.84375 C1.94566406 16.81667969 1.13742187 16.78960937 0.3046875 16.76171875 C-0.31019531 16.72691406 -0.92507813 16.69210938 -1.55859375 16.65625 C-1.55859375 15.99625 -1.55859375 15.33625 -1.55859375 14.65625 C-2.63109375 14.553125 -3.70359375 14.45 -4.80859375 14.34375 C-10.23777464 13.34840017 -10.23777464 13.34840017 -12.55859375 10.65625 C-13.33182326 6.70418804 -12.8542537 5.11945059 -10.68359375 1.71875 C-6.73120206 -0.88982852 -4.56960561 -0.70825482 0 0 Z M-8.49609375 3.84375 C-9.77812734 5.665768 -9.77812734 5.665768 -9.49609375 8.15625 C-8.33856385 11.2429964 -7.39281193 12.00889036 -4.55859375 13.65625 C-1.51084925 14.01782879 -1.51084925 14.01782879 1.69140625 13.84375 C2.7690625 13.81667969 3.84671875 13.78960937 4.95703125 13.76171875 C5.776875 13.72691406 6.59671875 13.69210938 7.44140625 13.65625 C7.44140625 11.34625 7.44140625 9.03625 7.44140625 6.65625 C6.78140625 6.65625 6.12140625 6.65625 5.44140625 6.65625 C5.44140625 5.99625 5.44140625 5.33625 5.44140625 4.65625 C-1.57626706 1.97000221 -1.57626706 1.97000221 -8.49609375 3.84375 Z " fill="#C3C3C3" transform="translate(1271.55859375,217.34375)"/>
<path d="M0 0 C0.99 0.33 1.98 0.66 3 1 C3 2.65 3 4.3 3 6 C3.99 6 4.98 6 6 6 C7.80338983 22.29491525 7.80338983 22.29491525 4 28 C-0.8395196 32.32532064 -4.92709372 35.13284262 -11.5625 35.1875 C-12.34753906 35.20167969 -13.13257813 35.21585938 -13.94140625 35.23046875 C-16 35 -16 35 -18 33 C-16.18807014 31.18807014 -13.2644497 31.48395042 -10.8125 31.1875 C-5.45728825 30.39391758 -1.95497991 29.73525881 2 26 C4.80205116 18.04917983 3.31606804 9.46115309 0 2 C0 1.34 0 0.68 0 0 Z " fill="#1A1A1A" transform="translate(1151,144)"/>
<path d="M0 0 C4.26626932 0.70172989 7.9028281 2.39577459 11.68359375 4.44140625 C7.94921875 5.56640625 7.94921875 5.56640625 5.55859375 4.44140625 C1.24947371 2.94258189 -2.87491654 3.62713314 -7.31640625 4.44140625 C-8.59942885 5.52966061 -8.59942885 5.52966061 -8.75390625 8.12890625 C-8.21166004 12.2344847 -6.84654901 13.49082751 -3.921875 16.2421875 C-0.10389135 19.09406336 4.21656986 18.59043555 8.74609375 18.56640625 C9.47892578 18.57027344 10.21175781 18.57414062 10.96679688 18.578125 C14.95479563 18.65236382 14.95479563 18.65236382 18.68359375 17.44140625 C19.03697998 14.4729619 19.22536195 12.28542407 17.5703125 9.70703125 C16.32856207 8.23791806 15.01021457 6.83435811 13.68359375 5.44140625 C16.9849261 5.70908185 18.30862673 6.00178975 20.49609375 8.56640625 C21.92499949 12.02586226 21.90173528 14.73300023 21.68359375 18.44140625 C14.89513688 22.27991047 5.2203308 21.61846486 -2.31640625 20.44140625 C-6.624575 18.33408999 -9.18568217 15.70285441 -11.31640625 11.44140625 C-11.7141323 7.86187179 -11.50435548 5.834391 -9.94140625 2.56640625 C-6.51372533 -0.20838306 -4.31467752 -0.19874443 0 0 Z " fill="#6C6C6C" transform="translate(1072.31640625,278.55859375)"/>
<path d="M0 0 C3.88842659 1.18813035 5.63338187 3.78816111 8 7 C7.67 7.66 7.34 8.32 7 9 C6.5875 8.566875 6.175 8.13375 5.75 7.6875 C2.65010519 4.69831572 0.22886383 2.54829099 -4.1875 2.25 C-8.12025553 2.65582038 -8.12025553 2.65582038 -10.5 5.5 C-12.73494259 10.71486604 -12.73806934 14.46947655 -11.125 20 C-8.55553883 22.41831639 -7.57672568 22.37672408 -4.125 22.5 C1.50944011 22.16771505 1.50944011 22.16771505 6 19 C6.99266869 16.03775058 7.56598822 13.08990477 8 10 C8.33 10 8.66 10 9 10 C9.36185619 13.07577764 9.47286569 15.93151286 9 19 C5.71076091 23.15482832 3.13822175 24.25370809 -2.0625 25 C-6.24531098 25.23272783 -8.70658616 24.77881793 -12 22 C-14.9627504 19.0372496 -14.93004595 16.75550376 -15.3125 12.625 C-14.93891566 8.29142171 -13.68178352 6.371385 -11 3 C-10.5875 2.38125 -10.175 1.7625 -9.75 1.125 C-6.74354232 -0.8077228 -3.41788948 -0.38823897 0 0 Z " fill="#919191" transform="translate(1143,146)"/>
<path d="M0 0 C4.22963468 1.51058382 5.91246173 4.12314321 8 8 C8.6875 10.875 8.6875 10.875 8 14 C5.6604665 17.46148962 3.11791881 21.20251205 -0.8984375 22.71484375 C-7.68301226 23.63542731 -14.14994309 24.00267051 -20 20 C-20.33 19.34 -20.66 18.68 -21 18 C-20.2575 18.33 -19.515 18.66 -18.75 19 C-13.47125706 20.40766478 -8.42307118 20.77472445 -3 20 C-0.5607926 18.56941001 0.33129353 17.3592057 2 15 C2.33 14.67 2.66 14.34 3 14 C2.86759248 9.07036605 2.16137791 4.46684769 0 0 Z " fill="#454545" transform="translate(1282,218)"/>
<path d="M0 0 C4.56567357 1.15007862 8.54764823 3.24962953 12.57421875 5.6484375 C12.57421875 6.3084375 12.57421875 6.9684375 12.57421875 7.6484375 C6.82421875 5.7734375 6.82421875 5.7734375 4.57421875 4.6484375 C0.15687018 4.0782242 -4.35978548 3.63937007 -8.44921875 5.63671875 C-11.95552456 8.67266647 -12.80827125 11.46123962 -13.30078125 16.0234375 C-13.36895479 17.5641596 -13.41968553 19.10621992 -13.42578125 20.6484375 C-16.42578125 18.6484375 -16.42578125 18.6484375 -17.03515625 16.80078125 C-17.28648037 12.84242637 -16.93532041 10.44264877 -14.76171875 7.0546875 C-10.3384025 2.11557819 -6.76515494 -0.61597957 0 0 Z " fill="#585858" transform="translate(1269.42578125,210.3515625)"/>
<path d="M0 0 C5.04884657 0.06390945 9.95681822 1.16973853 14.5625 3.25 C16.71165785 6.47373677 16.94536803 7.51703674 16.5625 11.25 C13.98034328 13.83215672 12.83546873 13.54794465 9.25 13.5625 C4.85123052 13.48199964 2.0261792 13.17247932 -1.4375 10.25 C-2.035625 9.816875 -2.63375 9.38375 -3.25 8.9375 C-5.03667227 6.39854467 -4.69952848 4.26332754 -4.4375 1.25 C-3.4375 0.25 -3.4375 0.25 0 0 Z M-1.4375 3.25 C-2.05522132 5.16313936 -2.05522132 5.16313936 -2.4375 7.25 C-0.59590327 9.73615558 0.56720711 10.25156904 3.5625 11.25 C5.08111755 11.34203743 6.60360426 11.38001284 8.125 11.375 C9.30255859 11.37886719 9.30255859 11.37886719 10.50390625 11.3828125 C12.62688977 11.37976366 12.62688977 11.37976366 14.5625 10.25 C14.45636164 7.79775306 14.45636164 7.79775306 13.5625 5.25 C9.18676555 2.28579279 3.63632262 3.07266251 -1.4375 3.25 Z " fill="#C6C6C6" transform="translate(1071.4375,282.75)"/>
<path d="M0 0 C1.31226563 -0.00773438 2.62453125 -0.01546875 3.9765625 -0.0234375 C7.63080734 0.40499121 8.09542314 0.76347111 10.375 3.375 C9.14523437 3.29378906 7.91546875 3.21257812 6.6484375 3.12890625 C-2.01034428 2.38555213 -2.01034428 2.38555213 -10.05078125 4.79296875 C-11.52893096 6.58431814 -12.58697692 8.30346699 -13.625 10.375 C-14.223125 11.014375 -14.82125 11.65375 -15.4375 12.3125 C-17.2915352 15.5326664 -17.31810847 18.69230162 -17.625 22.375 C-18.615 22.045 -19.605 21.715 -20.625 21.375 C-21.35783396 17.25280896 -21.12935203 15.25730928 -19.01953125 11.56640625 C-13.45516869 3.70530868 -10.00876825 -0.05922348 0 0 Z " fill="#181818" transform="translate(1139.625,140.625)"/>
<path d="M0 0 C1.0209375 0.13535156 1.0209375 0.13535156 2.0625 0.2734375 C4 0.625 4 0.625 7 1.625 C7 2.285 7 2.945 7 3.625 C6.0821875 3.5321875 5.164375 3.439375 4.21875 3.34375 C-2.93775238 2.86087903 -2.93775238 2.86087903 -9.640625 4.984375 C-15.44871738 10.19014669 -16.49633579 16.07003678 -17 23.625 C-17.66 23.625 -18.32 23.625 -19 23.625 C-19.86028391 10.73985884 -19.86028391 10.73985884 -16.9375 7.0625 C-11.96837147 2.93918058 -6.7185579 -0.94161607 0 0 Z " fill="#1A1A1A" transform="translate(1269,206.375)"/>
<path d="M0 0 C3.1875 1.375 3.1875 1.375 5 3 C5 3.66 5 4.32 5 5 C4.46246094 4.84273438 3.92492188 4.68546875 3.37109375 4.5234375 C-1.3777303 3.47509743 -6.18275589 3.39949423 -11 4 C-14.12913243 6.12642846 -14.12913243 6.12642846 -16 9 C-16.5775 9.474375 -17.155 9.94875 -17.75 10.4375 C-19.60431006 12.75538758 -19.67873538 15.1086184 -20 18 C-20.66 17.67 -21.32 17.34 -22 17 C-22.4138514 12.77871573 -22.60117978 10.74263384 -19.875 7.375 C-18.92625 6.59125 -17.9775 5.8075 -17 5 C-16.13375 4.071875 -15.2675 3.14375 -14.375 2.1875 C-10.20023054 -1.24990758 -5.10491612 -0.72927373 0 0 Z " fill="#191919" transform="translate(1077,272)"/>
<path d="M0 0 C1.5778125 0.4021875 1.5778125 0.4021875 3.1875 0.8125 C3.5175 1.8025 3.8475 2.7925 4.1875 3.8125 C2.82625 3.7196875 2.82625 3.7196875 1.4375 3.625 C-1.75015346 3.61590999 -1.75015346 3.61590999 -4.1875 4.875 C-6.60044727 7.75197559 -6.0859643 10.18909799 -5.8125 13.8125 C-4.00007948 13.83937279 -2.18754767 13.85883715 -0.375 13.875 C1.13900391 13.89240234 1.13900391 13.89240234 2.68359375 13.91015625 C5.12771067 14.09862676 5.12771067 14.09862676 6.1875 12.8125 C6.41825082 11.46502916 6.59903063 10.10872435 6.75 8.75 C6.894375 7.450625 7.03875 6.15125 7.1875 4.8125 C7.5175 4.8125 7.8475 4.8125 8.1875 4.8125 C8.47531083 7.86329478 8.60293631 10.76956395 8.1875 13.8125 C5.47104099 16.61384835 2.88886705 17.01080097 -0.875 17.25 C-4.8125 16.8125 -4.8125 16.8125 -7.3125 15.3125 C-9.40651202 11.82247997 -9.69151716 8.71410249 -8.8125 4.8125 C-6.05234629 0.71408994 -5.00061479 -0.24593188 0 0 Z " fill="#D9D9D9" transform="translate(1140.8125,150.1875)"/>
<path d="M0 0 C4.30009864 0.87470951 6.0689288 1.92853204 8.765625 5.44921875 C11.35305447 10.21979184 10.85893679 15.23806816 10.515625 20.51171875 C10.185625 20.51171875 9.855625 20.51171875 9.515625 20.51171875 C9.40605469 19.68027344 9.29648438 18.84882813 9.18359375 17.9921875 C9.02503906 16.90550781 8.86648438 15.81882813 8.703125 14.69921875 C8.55230469 13.62027344 8.40148438 12.54132813 8.24609375 11.4296875 C7.48319063 8.38215472 6.81383212 7.50769589 4.515625 5.51171875 C4.515625 4.85171875 4.515625 4.19171875 4.515625 3.51171875 C0.63524904 2.2182601 -3.44728381 1.90532439 -7.484375 2.51171875 C-10.49171815 4.7276558 -12.08460991 7.08470766 -13.484375 10.51171875 C-13.72510694 13.33257603 -13.72510694 13.33257603 -13.609375 16.26171875 C-13.59132813 17.2465625 -13.57328125 18.23140625 -13.5546875 19.24609375 C-13.53148437 19.99375 -13.50828125 20.74140625 -13.484375 21.51171875 C-16.05790892 18.93818483 -16.40870003 16.93213525 -17.046875 13.38671875 C-16.31738667 8.36135468 -14.44427988 5.90786237 -10.98046875 2.27734375 C-7.31217424 -0.3174436 -4.38184915 -0.2816903 0 0 Z " fill="#696969" transform="translate(1142.484375,144.48828125)"/>
<path d="M0 0 C0.33 0 0.66 0 1 0 C1.0825 1.258125 1.165 2.51625 1.25 3.8125 C1.63700664 7.31302273 1.63700664 7.31302273 4.0625 9.875 C4.701875 10.24625 5.34125 10.6175 6 11 C6 11.66 6 12.32 6 13 C6.99 13.33 7.98 13.66 9 14 C10.33333333 15.33333333 11.66666667 16.66666667 13 18 C16.00778521 19.00259507 18.53820647 19.30314642 21.6875 19.5625 C22.68136719 19.64628906 23.67523437 19.73007813 24.69921875 19.81640625 C25.83810547 19.90728516 25.83810547 19.90728516 27 20 C27 20.33 27 20.66 27 21 C13.14247638 21.5626363 13.14247638 21.5626363 7 18 C6.34902344 17.71769531 5.69804688 17.43539062 5.02734375 17.14453125 C2.73246891 15.95375126 1.49371101 15.1294273 0 13 C-0.59759346 8.6087552 -0.40616253 4.40331754 0 0 Z " fill="#262626" transform="translate(1252,221)"/>
<path d="M0 0 C0.33 1.32 0.66 2.64 1 4 C-3.81180319 8.18417669 -7.17478515 9.85962783 -13.62109375 9.57421875 C-17.71475011 8.5860948 -19.43398684 6.24127979 -22 3 C-21.67 2.34 -21.34 1.68 -21 1 C-20.38898438 1.71542969 -20.38898438 1.71542969 -19.765625 2.4453125 C-16.67232074 5.16906271 -12.9979975 5.12597339 -9 5 C-5.41327055 4.06110095 -2.64906121 2.64906121 0 0 Z " fill="#666666" transform="translate(1151,165)"/>
<path d="M0 0 C0.66 0.33 1.32 0.66 2 1 C1.505 1.33 1.01 1.66 0.5 2 C-1.88179561 5.17572747 -1.19168226 8.10246066 -1 12 C-0.443125 12.226875 0.11375 12.45375 0.6875 12.6875 C3 14 3 14 5.15625 16.53125 C8.65781953 19.5710741 11.37118828 19.77424947 15.8125 19.8125 C16.50537109 19.83763672 17.19824219 19.86277344 17.91210938 19.88867188 C19.60747122 19.94713263 21.30379287 19.97653047 23 20 C23 20.33 23 20.66 23 21 C20.45716766 21.10871967 17.91904912 21.18762401 15.375 21.25 C14.66214844 21.28351563 13.94929688 21.31703125 13.21484375 21.3515625 C8.02550009 21.44677981 5.08028401 20.49021217 1 17 C0.67 16.01 0.34 15.02 0 14 C-0.66 14 -1.32 14 -2 14 C-4.09491746 10.59575912 -4.49573145 7.96585158 -4 4 C-2 1.625 -2 1.625 0 0 Z " fill="#454545" transform="translate(1063,280)"/>
<path d="M0 0 C2.9719385 1.12451727 5.33440687 2.22293791 8 4 C13.2857941 5.22925444 19.37352887 6.05058845 24.5 4 C24.995 3.67 25.49 3.34 26 3 C24.25 6.875 24.25 6.875 22 8 C14.5977825 8.80835449 9.05810083 8.2348605 2.64453125 4.38671875 C1 3 1 3 0 0 Z " fill="#6A6A6A" transform="translate(1257,231)"/>
<path d="M0 0 C0 0.33 0 0.66 0 1 C-1.98 1.66 -3.96 2.32 -6 3 C-6.33 4.65 -6.66 6.3 -7 8 C-3.67148232 11.01343955 -1.18117187 11.44667544 3.25 11.6875 C4.32765625 11.75324219 5.4053125 11.81898438 6.515625 11.88671875 C7.74539063 11.94279297 7.74539063 11.94279297 9 12 C7 14 7 14 3.8125 14.25 C-0.84634549 13.94450193 -5.01061034 13.34765106 -8.9375 10.6875 C-10.47111472 8.25175898 -10.4823474 6.82517764 -10 4 C-7.11625216 -0.103795 -4.87056294 -0.44277845 0 0 Z " fill="#D2D2D2" transform="translate(1270,219)"/>
<path d="M0 0 C0.99 0.66 1.98 1.32 3 2 C3.40443437 5.08381205 3.62392921 7.03917229 3 10 C0.82425584 12.69105198 -0.91065856 14.45532928 -4 16 C-5.70702735 16.06996014 -7.41668003 16.08440154 -9.125 16.0625 C-10.03507812 16.05347656 -10.94515625 16.04445312 -11.8828125 16.03515625 C-12.93082031 16.01775391 -12.93082031 16.01775391 -14 16 C-14.66 14.68 -15.32 13.36 -16 12 C-15.505 12.165 -15.01 12.33 -14.5 12.5 C-9.02078882 13.59584224 -5.04139249 13.52069624 0 11 C0 7.37 0 3.74 0 0 Z " fill="#B2B2B2" transform="translate(1148,153)"/>
<path d="M0 0 C0.33 0 0.66 0 1 0 C1.09796875 0.65226563 1.1959375 1.30453125 1.296875 1.9765625 C2.46830298 8.82335705 4.4365397 14.46206234 10 19 C12.50203648 19.57571496 12.50203648 19.57571496 15.1875 19.6875 C16.08855469 19.75324219 16.98960938 19.81898438 17.91796875 19.88671875 C18.60503906 19.92410156 19.29210938 19.96148437 20 20 C20 20.33 20 20.66 20 21 C9.25869054 21.86006926 9.25869054 21.86006926 5.5625 18.9375 C1.59757524 14.39234235 -1.21261772 10.82879934 -1.3125 4.625 C-1 1 -1 1 0 0 Z " fill="#4A4A4A" transform="translate(1125,154)"/>
<path d="M0 0 C4.01686987 -0.46707789 5.56501812 -0.32150834 8.875 2.125 C11 5 11 5 11.5 8.1875 C11.335 9.115625 11.17 10.04375 11 11 C7.47320901 13.35119399 5.97120515 13.21443452 1.8125 13.125 C0.72582031 13.10695313 -0.36085938 13.08890625 -1.48046875 13.0703125 C-2.72763672 13.03550781 -2.72763672 13.03550781 -4 13 C-4 12.67 -4 12.34 -4 12 C-3.28972656 11.93941406 -2.57945313 11.87882812 -1.84765625 11.81640625 C-0.92855469 11.73261719 -0.00945312 11.64882813 0.9375 11.5625 C1.85402344 11.48128906 2.77054688 11.40007812 3.71484375 11.31640625 C5.96159732 11.23955024 5.96159732 11.23955024 7 10 C7.1613058 6.93518979 6.98150241 4.94450722 6 2 C3.03 1.505 3.03 1.505 0 1 C0 0.67 0 0.34 0 0 Z " fill="#A1A1A1" transform="translate(1080,284)"/>
<path d="M0 0 C11.45651983 -0.40042205 11.45651983 -0.40042205 15 2 C15.8125 4.625 15.8125 4.625 16 7 C13.67404054 8.16297973 12.21276769 8.16600691 9.625 8.1875 C8.85414062 8.20167969 8.08328125 8.21585937 7.2890625 8.23046875 C4.78165112 7.97801607 3.16738098 7.25193467 1 6 C4.2830098 4.3584951 7.42545033 5.48111376 11 6 C11.66 4.68 12.32 3.36 13 2 C11.04196493 1.94610913 9.08351091 1.90725783 7.125 1.875 C6.03445313 1.85179687 4.94390625 1.82859375 3.8203125 1.8046875 C0.8628949 1.69939466 0.8628949 1.69939466 -1 4 C-0.67 2.68 -0.34 1.36 0 0 Z " fill="#DADADA" transform="translate(1070,286)"/>
<path d="M0 0 C2.36810318 0.94724127 3.75207953 1.65291134 5.25 3.75 C6.23625003 6.7087501 6.39543717 8.90240887 6 12 C3.74303597 14.26763526 2.346733 14.95135245 -0.83984375 15.3984375 C-1.86207031 15.39070312 -2.88429688 15.38296875 -3.9375 15.375 C-4.95714844 15.38273438 -5.97679687 15.39046875 -7.02734375 15.3984375 C-10.34907205 14.95321242 -12.27186865 13.89914116 -15 12 C-12.3333581 10.66667905 -10.83319697 11.32897967 -8 12 C-8 12.66 -8 13.32 -8 14 C-6.54077307 13.88590407 -5.08259402 13.75834456 -3.625 13.625 C-2.81289062 13.55539063 -2.00078125 13.48578125 -1.1640625 13.4140625 C1.20334191 13.17107412 1.20334191 13.17107412 3 11 C3.35173852 7.20122401 3.52701444 4.85639847 1.5 1.5625 C1.005 1.046875 0.51 0.53125 0 0 Z " fill="#A0A0A0" transform="translate(1278,220)"/>
<path d="M0 0 C4.26626932 0.70172989 7.9028281 2.39577459 11.68359375 4.44140625 C7.94921875 5.56640625 7.94921875 5.56640625 5.55859375 4.44140625 C1.27377547 2.95103468 -2.91549458 3.47554245 -7.31640625 4.44140625 C-9.67593719 6.80093719 -9.80782038 8.22036242 -10.31640625 11.44140625 C-10.64640625 11.44140625 -10.97640625 11.44140625 -11.31640625 11.44140625 C-11.64533385 7.9054345 -11.48566538 5.79531171 -9.94140625 2.56640625 C-6.51372533 -0.20838306 -4.31467752 -0.19874443 0 0 Z " fill="#767676" transform="translate(1072.31640625,278.55859375)"/>
<path d="M0 0 C4.58760108 0.76460018 4.58760108 0.76460018 6.79296875 2.0234375 C9.65029656 3.28774184 11.94772362 3.26543879 15.0625 3.25 C16.62677734 3.25773438 16.62677734 3.25773438 18.22265625 3.265625 C21.21128985 3.20072577 21.21128985 3.20072577 24 1 C22.25 4.875 22.25 4.875 20 6 C12.52473296 6.38009832 6.29255917 5.38572306 0 1 C0 0.67 0 0.34 0 0 Z " fill="#909090" transform="translate(1259,231)"/>
<path d="M0 0 C6.20970773 -0.33266291 10.28264895 0.54970669 16 3 C16 3.66 16 4.32 16 5 C18.475 5.495 18.475 5.495 21 6 C18.5939082 6.85429776 17.39443992 7.14329557 14.95703125 6.2578125 C14.24933594 5.88398438 13.54164062 5.51015625 12.8125 5.125 C8.13565425 2.87203444 4.1610572 2.32768617 -1 2 C-0.67 1.34 -0.34 0.68 0 0 Z " fill="#5A5A5A" transform="translate(1067,277)"/>
<path d="M0 0 C0.33 0.66 0.66 1.32 1 2 C-0.59748204 4.64410821 -1.56528485 6.19883438 -4 8 C-10.18749036 9.14406601 -16.14304823 8.08247174 -22 6 C-17.63244023 4.64563651 -13.39803599 5.01881138 -8.875 5.16015625 C-5.93610649 4.99644071 -4.41816527 4.63550017 -2 3 C-1.34 2.01 -0.68 1.02 0 0 Z " fill="#121212" transform="translate(1286,237)"/>
<path d="M0 0 C0.66 0.33 1.32 0.66 2 1 C1.38125 1.5775 0.7625 2.155 0.125 2.75 C-3.55481199 6.64627152 -4.25204801 9.41398379 -4.125 14.75 C-4.10695313 15.73484375 -4.08890625 16.7196875 -4.0703125 17.734375 C-4.04710937 18.48203125 -4.02390625 19.2296875 -4 20 C-6.60495245 17.39504755 -6.93463614 15.41669461 -7.5 11.8125 C-6.78869176 6.38877469 -3.80447555 3.73653849 0 0 Z " fill="#6F6F6F" transform="translate(1133,146)"/>
<path d="M0 0 C2.375 0.3125 2.375 0.3125 5 1 C7.14915785 4.22373677 7.38286803 5.26703674 7 9 C5 11 5 11 2.3984375 11.1953125 C1.40070313 11.17210937 0.40296875 11.14890625 -0.625 11.125 C-2.12933594 11.09792969 -2.12933594 11.09792969 -3.6640625 11.0703125 C-4.43492188 11.04710937 -5.20578125 11.02390625 -6 11 C-6 10.67 -6 10.34 -6 10 C-0.555 9.01 -0.555 9.01 5 8 C3.18664073 3.25821624 3.18664073 3.25821624 0 0 Z " fill="#BEBEBE" transform="translate(1081,285)"/>
<path d="M0 0 C0.66 0.33 1.32 0.66 2 1 C1.16855469 1.64001953 1.16855469 1.64001953 0.3203125 2.29296875 C-5.67453641 7.46645936 -7.06243831 11.6243831 -7.84375 19.4375 C-7.8953125 20.283125 -7.946875 21.12875 -8 22 C-8.33 22 -8.66 22 -9 22 C-9.86098386 9.10437514 -9.86098386 9.10437514 -6.75 5.375 C-2.30769231 1.53846154 -2.30769231 1.53846154 0 0 Z " fill="#121212" transform="translate(1259,208)"/>
<path d="M0 0 C7.625 1.875 7.625 1.875 11 3 C11 3.66 11 4.32 11 5 C11.66 5 12.32 5 13 5 C13.33 5.99 13.66 6.98 14 8 C11.03 7.01 8.06 6.02 5 5 C5 4.34 5 3.68 5 3 C2.525 2.01 2.525 2.01 0 1 C0 0.67 0 0.34 0 0 Z " fill="#1B1B1B" transform="translate(1082,277)"/>
<path d="M0 0 C0.33 0 0.66 0 1 0 C1.0825 1.258125 1.165 2.51625 1.25 3.8125 C1.63700664 7.31302273 1.63700664 7.31302273 4.0625 9.875 C4.701875 10.24625 5.34125 10.6175 6 11 C6 11.66 6 12.32 6 13 C6.99 13.33 7.98 13.66 9 14 C7.3125 14.75 7.3125 14.75 5 15 C2.25 13.75 2.25 13.75 0 11 C-0.43084361 7.29793641 -0.28783702 3.70989942 0 0 Z " fill="#313131" transform="translate(1252,221)"/>
<path d="M0 0 C1.32 0.33 2.64 0.66 4 1 C4 1.66 4 2.32 4 3 C4.66 3 5.32 3 6 3 C6.45375 3.61875 6.9075 4.2375 7.375 4.875 C9.10279389 7.13442278 10.40813228 7.92750301 13 9 C11.375 9.75 11.375 9.75 9 10 C4.13349726 7.51709044 2.05510619 5.0235929 0 0 Z " fill="#222222" transform="translate(1057,291)"/>
<path d="M0 0 C0.66 0.33 1.32 0.66 2 1 C1.525625 1.37125 1.05125 1.7425 0.5625 2.125 C-1.52205802 4.62646962 -1.64621491 6.81593418 -2 10 C-0.68 10.66 0.64 11.32 2 12 C0.68 12.33 -0.64 12.66 -2 13 C-3.84753138 9.88229079 -4.54282688 7.61884589 -4 4 C-2 1.6875 -2 1.6875 0 0 Z " fill="#A9A9A9" transform="translate(1261,218)"/>
<path d="M0 0 C0.66 0 1.32 0 2 0 C2.1953125 6.0546875 2.1953125 6.0546875 2 8 C0 10 0 10 -2.6015625 10.1953125 C-3.59929687 10.17210937 -4.59703125 10.14890625 -5.625 10.125 C-7.12933594 10.09792969 -7.12933594 10.09792969 -8.6640625 10.0703125 C-9.43492188 10.04710937 -10.20578125 10.02390625 -11 10 C-11.33 9.34 -11.66 8.68 -12 8 C-11.39671875 8.01160156 -10.7934375 8.02320313 -10.171875 8.03515625 C-9.37265625 8.04417969 -8.5734375 8.05320313 -7.75 8.0625 C-6.96109375 8.07410156 -6.1721875 8.08570313 -5.359375 8.09765625 C-3.09308998 8.00385306 -1.1711105 7.63241063 1 7 C0.67 4.69 0.34 2.38 0 0 Z " fill="#E3E3E3" transform="translate(1146,155)"/>
<path d="M0 0 C4.75 0.75 4.75 0.75 7 3 C7.1953125 5.1640625 7.1953125 5.1640625 7.125 7.625 C7.10695313 8.44226563 7.08890625 9.25953125 7.0703125 10.1015625 C7.03550781 11.04128906 7.03550781 11.04128906 7 12 C6.67 12 6.34 12 6 12 C5.62875 10.4221875 5.62875 10.4221875 5.25 8.8125 C4.23299214 5.1866459 2.54626571 2.80089228 0 0 Z " fill="#737373" transform="translate(1086,284)"/>
<path d="M0 0 C2.61300922 2.61300922 2.66693419 4.50783582 3.03125 8.0859375 C3 10 3 10 1.8125 12.0625 C0 13 0 13 -2.1875 12.6875 C-2.785625 12.460625 -3.38375 12.23375 -4 12 C-3.34 11.690625 -2.68 11.38125 -2 11.0625 C0.44176498 8.54442986 0.27142406 7.71892628 0.25 4.3125 C0.18576167 2.8740202 0.10836453 1.43583001 0 0 Z " fill="#1E1E1E" transform="translate(1097,288)"/>
<path d="M0 0 C2.31 0.33 4.62 0.66 7 1 C7 1.66 7 2.32 7 3 C9.31 3 11.62 3 14 3 C14 3.33 14 3.66 14 4 C4.41885965 4.56359649 4.41885965 4.56359649 0 1 C0 0.67 0 0.34 0 0 Z " fill="#B2B2B2" transform="translate(1263,231)"/>
<path d="M0 0 C0.33 1.32 0.66 2.64 1 4 C-0.12073862 4.83905565 -1.24674547 5.67107831 -2.375 6.5 C-3.00148438 6.9640625 -3.62796875 7.428125 -4.2734375 7.90625 C-6 9 -6 9 -8 9 C-8 8.34 -8 7.68 -8 7 C-6.00669158 5.65668346 -4.00615134 4.32405988 -2 3 C-1.34 2.01 -0.68 1.02 0 0 Z " fill="#343434" transform="translate(1153,166)"/>
<path d="M0 0 C0.33 0 0.66 0 1 0 C1.33 3.3 1.66 6.6 2 10 C1.01 9.67 0.02 9.34 -1 9 C-1.09765625 2.84765625 -1.09765625 2.84765625 -1 1 C-0.67 0.67 -0.34 0.34 0 0 Z " fill="#505050" transform="translate(1125,154)"/>
<path d="M0 0 C0 0.99 0 1.98 0 3 C-2.5 5.1875 -2.5 5.1875 -5 7 C-5 6.01 -5 5.02 -5 4 C-4.34 4 -3.68 4 -3 4 C-2.67 3.01 -2.34 2.02 -2 1 C-1.34 0.67 -0.68 0.34 0 0 Z " fill="#121212" transform="translate(1155,169)"/>
<path d="M0 0 C0.99 0.33 1.98 0.66 3 1 C3.33 3.97 3.66 6.94 4 10 C1.16625119 6.79663178 0.4794463 4.21912747 0 0 Z " fill="#202020" transform="translate(1151,144)"/>
<path d="M0 0 C1.98 0 3.96 0 6 0 C6.33 1.32 6.66 2.64 7 4 C4.69 3.34 2.38 2.68 0 2 C0 1.34 0 0.68 0 0 Z " fill="#343434" transform="translate(1145,144)"/>
<path d="M0 0 C1.98 0.99 1.98 0.99 4 2 C4 2.66 4 3.32 4 4 C4.99 4.33 5.98 4.66 7 5 C5.68 5.33 4.36 5.66 3 6 C0 2.25 0 2.25 0 0 Z " fill="#404040" transform="translate(1254,230)"/>
<path d="M0 0 C0.99 0 1.98 0 3 0 C5.1875 3 5.1875 3 7 6 C5.68 5.67 4.36 5.34 3 5 C3 4.34 3 3.68 3 3 C2.01 2.67 1.02 2.34 0 2 C0 1.34 0 0.68 0 0 Z " fill="#1F1F1F" transform="translate(1126,170)"/>
</svg>
