<?xml version="1.0" encoding="UTF-8"?>
<svg version="1.1" xmlns="http://www.w3.org/2000/svg" width="2340" height="496">
<path d="M0 0 C24.935625 -0.0928125 24.935625 -0.0928125 50.375 -0.1875 C58.19517822 -0.22846802 58.19517822 -0.22846802 66.17333984 -0.27026367 C72.63012695 -0.28381348 72.63012695 -0.28381348 75.6703186 -0.28633118 C77.75538057 -0.2908828 79.84043557 -0.3013167 81.92544556 -0.31672668 C110.2990744 -0.51561287 139.09653302 3.28304373 161 23 C161.68449219 23.58007812 162.36898437 24.16015625 163.07421875 24.7578125 C178.44608445 38.71027214 184.98636582 60.99075711 187 81 C187.23473314 86.47675095 187.2456592 91.95624607 187.25 97.4375 C187.25067474 98.20011139 187.25134949 98.96272278 187.25204468 99.7484436 C187.23651872 110.77550414 186.93492848 121.30171231 184 132 C183.6596875 133.2684375 183.319375 134.536875 182.96875 135.84375 C178.99555058 149.53286632 172.13971981 160.98286748 162 171 C161.32582031 171.69609375 160.65164063 172.3921875 159.95703125 173.109375 C122.25053834 209.6132218 36.88863155 196 0 196 C0 131.32 0 66.64 0 0 Z M63 47 C63 80.33 63 113.66 63 148 C90.26280337 149.05327136 90.26280337 149.05327136 112.6875 137.8125 C120.0183347 128.89661996 122.30212466 118.5682922 122.3359375 107.265625 C122.3425943 106.46574158 122.3492511 105.66585815 122.35610962 104.84173584 C122.36615937 103.16111522 122.37092904 101.48045532 122.37060547 99.79980469 C122.37496641 97.26949085 122.41133264 94.74094267 122.44921875 92.2109375 C122.54027452 79.16419769 121.42410905 66.9450397 112 57 C105.38800517 50.38800517 98.06922585 48.29560369 89 47 C80.42 47 71.84 47 63 47 Z " fill="#FFFFFF" transform="translate(169,50)"/>
<path d="M0 0 C10.99381998 10.71988759 15.94018732 22.19496849 17.3515625 37.29296875 C17.3515625 39.60296875 17.3515625 41.91296875 17.3515625 44.29296875 C-2.4484375 44.29296875 -22.2484375 44.29296875 -42.6484375 44.29296875 C-43.3084375 40.99296875 -43.9684375 37.69296875 -44.6484375 34.29296875 C-47.59496238 29.32070801 -51.10405518 26.89832892 -56.4375 24.984375 C-66.42736366 22.83327297 -77.26519762 23.17751266 -86.6484375 27.29296875 C-88.1334375 27.78796875 -88.1334375 27.78796875 -89.6484375 28.29296875 C-91.43886701 31.33669893 -91.64822655 33.30499276 -91.5859375 36.85546875 C-90.41921082 41.13346658 -89.41592406 42.01677895 -85.6484375 44.29296875 C-78.89006278 47.78605123 -72.05507282 49.57548065 -64.6484375 51.16796875 C-62.338384 51.68549467 -60.02849224 52.20374294 -57.71875 52.72265625 C-56.54731445 52.98272461 -55.37587891 53.24279297 -54.16894531 53.51074219 C0.59050952 65.67782217 0.59050952 65.67782217 14.7265625 85.73046875 C23.30788707 99.63561791 24.20569823 115.72514062 21.2890625 131.54296875 C17.45071866 146.86096768 9.03678642 159.49054889 -4.1484375 168.23046875 C-5.96209049 169.28587134 -7.79545947 170.30824328 -9.6484375 171.29296875 C-10.50953125 171.751875 -11.370625 172.21078125 -12.2578125 172.68359375 C-42.22345014 187.40044537 -84.80679257 185.98301113 -116.171875 176.56640625 C-132.79837492 170.4762501 -146.41653672 161.52618485 -154.6484375 145.29296875 C-159.61116359 134.27164646 -160.6484375 124.36971632 -160.6484375 112.29296875 C-140.8484375 112.29296875 -121.0484375 112.29296875 -100.6484375 112.29296875 C-99.6584375 116.58296875 -98.6684375 120.87296875 -97.6484375 125.29296875 C-94.48325533 130.93094949 -90.62495461 132.41116703 -84.78222656 134.45727539 C-79.52656705 135.85881189 -74.43149663 135.83244553 -69.0234375 135.73046875 C-67.42242187 135.74110352 -67.42242187 135.74110352 -65.7890625 135.75195312 C-59.17827566 135.69916429 -53.76706341 134.76675161 -47.6484375 132.29296875 C-46.6584375 131.96296875 -45.6684375 131.63296875 -44.6484375 131.29296875 C-43.22643448 127.02695968 -42.63666259 121.47127049 -44.6484375 117.29296875 C-46.29424835 116.57635946 -47.96609399 115.91902189 -49.6484375 115.29296875 C-50.51960205 114.91906006 -51.3907666 114.54515137 -52.28833008 114.15991211 C-62.05472271 110.12806385 -72.02526672 108.0107303 -82.3359375 105.85546875 C-92.52717687 103.72421364 -102.58571504 101.51022904 -112.4765625 98.22265625 C-113.19748581 97.98305679 -113.91840912 97.74345734 -114.66117859 97.49659729 C-131.22347394 91.78064192 -145.6897405 81.91225705 -153.5234375 65.85546875 C-159.77561476 50.84603312 -159.08358654 33.69399332 -153.65234375 18.5078125 C-146.44704442 2.77582676 -133.09349564 -7.144209 -117.37109375 -13.4296875 C-80.89205939 -25.94662794 -30.73288367 -25.87768869 0 0 Z " fill="#FFFFFF" transform="translate(540.6484375,66.70703125)"/>
<path d="M0 0 C19.655625 -0.0825 39.31125 -0.165 59.5625 -0.25 C65.74299072 -0.28641602 71.92348145 -0.32283203 78.29125977 -0.36035156 C85.9041748 -0.37841797 85.9041748 -0.37841797 89.4808197 -0.3817749 C91.95102327 -0.38787196 94.42121578 -0.40184522 96.89134216 -0.42230225 C119.99867334 -0.60391812 138.16200452 0.93895301 155.75 17.625 C168.8963992 31.50175471 173.52888488 49.56929144 173.35351562 68.29394531 C172.7837655 87.26662433 166.30682739 104.80560284 152.4140625 118.0546875 C137.27202948 130.25651993 120.27135629 133.19361015 101.3046875 133.09765625 C100.23123077 133.0962413 99.15777405 133.09482635 98.05178833 133.09336853 C94.6594959 133.08781925 91.26727212 133.07527647 87.875 133.0625 C85.55989679 133.05747844 83.24479254 133.05291668 80.9296875 133.04882812 C75.28643534 133.0378665 69.64322258 133.02117973 64 133 C64.00222061 133.77452011 64.00444122 134.54904022 64.00672913 135.34703064 C64.02673134 142.63121021 64.04197377 149.91537655 64.05181217 157.19957638 C64.05704014 160.94483037 64.06413622 164.69006176 64.07543945 168.43530273 C64.08627141 172.04681687 64.09227749 175.65830921 64.09487724 179.26983833 C64.09673094 180.65060329 64.10035049 182.031367 64.10573006 183.41212273 C64.11294447 185.33975952 64.11340809 187.26741807 64.11352539 189.19506836 C64.115746 190.29427109 64.11796661 191.39347382 64.12025452 192.52598572 C64 195 64 195 63 196 C42.21 196 21.42 196 0 196 C0 131.32 0 66.64 0 0 Z M64 47 C64 59.87 64 72.74 64 86 C71.425 86.12375 71.425 86.12375 79 86.25 C80.54558594 86.28641602 82.09117187 86.32283203 83.68359375 86.36035156 C91.08026252 86.42000212 96.71836758 86.31862229 103 82 C107.58449013 77.31509949 108.37880607 73.01118151 108.625 66.5 C108.4038909 60.15732746 107.54214175 55.57917008 103 51 C100.47019293 49.04499143 100.47019293 49.04499143 98 48 C97.34 47.67 96.68 47.34 96 47 C93.59188686 46.91361112 91.21242109 46.88424799 88.8046875 46.90234375 C87.51030762 46.90484131 86.21592773 46.90733887 84.88232422 46.90991211 C83.22990723 46.91901611 81.57749023 46.92812012 79.875 46.9375 C74.63625 46.958125 69.3975 46.97875 64 47 Z " fill="#FFFFFF" transform="translate(594,50)"/>
<path d="M0 0 C12.21 0 24.42 0 37 0 C40.63 20.79 44.26 41.58 48 63 C49.70116119 56.19771861 49.70116119 56.19771861 51.03735352 49.3659668 C51.21416153 48.33517502 51.39096954 47.30438324 51.57313538 46.24235535 C51.75653976 45.15562027 51.93994415 44.06888519 52.12890625 42.94921875 C52.4207505 41.24557915 52.4207505 41.24557915 52.7184906 39.50752258 C53.33604441 35.90133397 53.94965575 32.29449174 54.5625 28.6875 C55.17916517 25.06270034 55.79673973 21.43806754 56.41722107 17.81391907 C56.80237772 15.56397475 57.18531367 13.31364892 57.56581116 11.06291199 C57.73946701 10.04788101 57.91312286 9.03285004 58.09204102 7.98706055 C58.31948753 6.64758614 58.31948753 6.64758614 58.55152893 5.28105164 C59 3 59 3 60 0 C71.55 0 83.1 0 95 0 C95.78246094 4.28484375 96.56492187 8.5696875 97.37109375 12.984375 C97.99615382 16.40314927 98.62147435 19.82187568 99.24697113 23.24057007 C99.90694091 26.84808255 100.56645268 30.45567738 101.22485352 34.06347656 C101.85914214 37.53904927 102.49469488 41.01438865 103.13112068 44.48957062 C103.49148315 46.45917522 103.8505398 48.42901858 104.20957947 50.39886475 C104.42973221 51.59980774 104.64988495 52.80075073 104.87670898 54.03808594 C105.06990219 55.09509705 105.2630954 56.15210815 105.46214294 57.2411499 C105.90639652 59.51987621 106.4074035 61.75618269 107 64 C107.18459023 62.86367378 107.18459023 62.86367378 107.37290955 61.70439148 C108.53269726 54.56758874 109.6948616 47.43117903 110.85970211 40.29519939 C111.45848273 36.62645543 112.05634105 32.9575661 112.65209961 29.28833008 C113.22699941 25.74777546 113.80431138 22.20762189 114.38330269 18.66773415 C114.60384764 17.31667923 114.82352091 15.96548172 115.04231071 14.61414146 C115.34873913 12.72244828 115.658546 10.8313033 115.96850586 8.94018555 C116.23164833 7.32469063 116.23164833 7.32469063 116.50010681 5.67655945 C117 3 117 3 118 0 C129.55 0 141.1 0 153 0 C148.69365857 22.70616392 144.13754924 45.35988184 139.56005859 68.01269531 C138.45553579 73.47943774 137.35482828 78.94694142 136.25494766 84.41461945 C135.40245943 88.64931969 134.54741825 92.88350142 133.69164276 97.11753845 C133.28402496 99.13644159 132.87734622 101.15553456 132.47162628 103.17481995 C131.90988059 105.96931162 131.34456707 108.76305807 130.77832031 111.55664062 C130.61210678 112.38757233 130.44589325 113.21850403 130.27464294 114.07461548 C129.11415646 119.77168707 129.11415646 119.77168707 128 122 C115.46 122 102.92 122 90 122 C87.99418381 113.30812985 86.1183516 104.68151639 84.51953125 95.91796875 C84.30181564 94.73777664 84.08410004 93.55758453 83.85978699 92.34162903 C83.17463198 88.62408155 82.49349442 84.90581163 81.8125 81.1875 C81.34466819 78.64513312 80.87657159 76.10281495 80.40820312 73.56054688 C79.26907802 67.37425693 78.13323769 61.18737099 77 55 C76.67 55 76.34 55 76 55 C75.77782555 56.21482559 75.77782555 56.21482559 75.55116272 57.45419312 C74.15648316 65.07709583 72.75888848 72.69945549 71.35799503 80.32121849 C70.6378427 84.23989297 69.91882954 88.15876941 69.20239258 92.078125 C68.5112785 95.85871416 67.8172077 99.63874943 67.12106133 103.41841507 C66.85565694 104.86234735 66.59132845 106.3064778 66.32808113 107.7508049 C65.95990807 109.76978529 65.58795653 111.78803467 65.21508789 113.80615234 C65.00412979 114.95642914 64.79317169 116.10670593 64.57582092 117.2918396 C64 120 64 120 63 122 C50.46 122 37.92 122 25 122 C23.06338907 114.25355627 21.22076446 106.570053 19.63989258 98.75537109 C19.31736763 97.17748306 19.31736763 97.17748306 18.98832703 95.56771851 C18.28776858 92.136821 17.59103481 88.70516028 16.89453125 85.2734375 C16.40575017 82.87395693 15.91678957 80.47451292 15.42765808 78.07510376 C14.40817046 73.07108204 13.39052644 68.06669013 12.37426758 63.06201172 C11.06934423 56.63631016 9.76026684 50.21146335 8.44989491 43.78687096 C7.44217378 38.84426551 6.43637238 33.90127099 5.43118858 28.95814896 C4.94887659 26.58726704 4.46601958 24.21649593 3.98261452 21.84583664 C3.31046476 18.54783883 2.64083671 15.24933922 1.97192383 11.95068359 C1.77092072 10.96684692 1.5699176 9.98301025 1.36282349 8.96936035 C1.18204758 8.0752243 1.00127167 7.18108826 0.8150177 6.25985718 C0.65667859 5.48085745 0.49833948 4.70185772 0.33520222 3.89925194 C0 2 0 2 0 0 Z " fill="#FFFFFF" transform="translate(614,301)"/>
<path d="M0 0 C31 0 31 0 38.125 6.875 C39.65869141 9.22607422 39.65869141 9.22607422 40.6015625 11.3046875 C43.0640551 16.28993624 46.1753016 20.55918732 49.5 25 C50.58588575 26.50467168 51.66923011 28.01118076 52.75 29.51953125 C56.41906751 34.59986359 60.17487251 39.61333814 63.95507812 44.61132812 C64.41333984 45.21783203 64.87160156 45.82433594 65.34375 46.44921875 C65.73755859 46.96830811 66.13136719 47.48739746 66.53710938 48.0222168 C68.72986112 50.98674982 70.85676612 53.99947257 73 57 C73.33 38.19 73.66 19.38 74 0 C84.56 0 95.12 0 106 0 C106 40.26 106 80.52 106 122 C95.44 122 84.88 122 74 122 C65.08255015 112.87354742 65.08255015 112.87354742 63.01171875 108.56640625 C59.90105059 102.59228231 55.98480873 97.51661281 51.8125 92.25 C45.39507895 83.9362946 39.21359846 75.47308881 33 67 C32.67 85.15 32.34 103.3 32 122 C21.44 122 10.88 122 0 122 C0 81.74 0 41.48 0 0 Z " fill="#FFFFFF" transform="translate(1938,301)"/>
<path d="M0 0 C12.00375 -0.0825 24.0075 -0.165 36.375 -0.25 C42.03342041 -0.30462402 42.03342041 -0.30462402 47.80615234 -0.36035156 C52.45825195 -0.37841797 52.45825195 -0.37841797 54.64492798 -0.3817749 C56.15287007 -0.3878659 57.66079425 -0.4018264 59.16860962 -0.42230225 C71.25271031 -0.57801591 81.0095256 0.35741687 90.1796875 9.0078125 C98.27476172 17.86722849 101.41450429 27.53109805 101.2109375 39.48046875 C100.29790231 50.3861668 96.5093605 59.1336907 88.375 66.5 C85.94784557 68.55111642 84.07733158 69.29833347 81 70 C83.33135219 75.14673316 85.66513375 80.29236016 88 85.4375 C88.34225616 86.19209503 88.68451233 86.94669006 89.03713989 87.72415161 C93.24846636 97.00590174 97.46394385 106.28325698 101.91601562 115.45288086 C104 119.79156148 104 119.79156148 104 122 C91.13 122 78.26 122 65 122 C59.37445458 110.74890916 59.37445458 110.74890916 56.95703125 104.85546875 C56.7024968 104.23779129 56.44796234 103.62011383 56.18571472 102.98371887 C55.39111034 101.05307437 54.60172094 99.12035042 53.8125 97.1875 C53.27442988 95.87811489 52.73602027 94.56886923 52.19726562 93.25976562 C50.10976645 88.1816934 48.03910361 83.09775903 46 78 C42.37 77.67 38.74 77.34 35 77 C35 91.85 35 106.7 35 122 C23.45 122 11.9 122 0 122 C0 81.74 0 41.48 0 0 Z M35 28 C35 35.26 35 42.52 35 50 C38.361875 50.04125 41.72375 50.0825 45.1875 50.125 C46.76374146 50.15231201 46.76374146 50.15231201 48.37182617 50.18017578 C49.63216675 50.18766846 49.63216675 50.18766846 50.91796875 50.1953125 C51.77156982 50.20578613 52.6251709 50.21625977 53.50463867 50.22705078 C57.60535948 49.85392972 60.29129774 48.65123991 63.3125 45.875 C65.91390804 41.44297149 65.65762258 37.70355948 64.4375 32.6875 C61.60622955 29.36383469 57.68527782 28.15983177 53.45922852 27.7590332 C50.65294991 27.70570665 47.86852784 27.73828268 45.0625 27.8125 C41.741875 27.874375 38.42125 27.93625 35 28 Z " fill="#FFFFFF" transform="translate(896,302)"/>
<path d="M0 0 C13.30725262 10.38233636 19.2089673 23.6126097 22.05859375 39.953125 C24.34120492 59.58762107 23.32711135 82.1366933 11.1875 98.5625 C1.87012305 109.66704623 -10.00226836 116.69586946 -24.6315918 118.03710938 C-27.90554162 118.15071725 -31.16188796 118.15974426 -34.4375 118.125 C-35.52740234 118.13660156 -36.61730469 118.14820313 -37.74023438 118.16015625 C-52.46294783 118.10766886 -65.74353497 113.95992129 -76.65625 103.78515625 C-90.34548884 88.67478881 -93.18058017 68.02105799 -92.40673828 48.38330078 C-91.48195682 34.74203563 -88.44466612 22.0566407 -80.5 10.75 C-80.06042969 10.11449219 -79.62085938 9.47898437 -79.16796875 8.82421875 C-62.10692155 -13.35022589 -22.03505792 -14.2365058 0 0 Z M-50.6875 27.8125 C-55.98463881 36.39751807 -57.13991378 44.81612179 -57 54.75 C-57.01546875 55.84828125 -57.0309375 56.9465625 -57.046875 58.078125 C-57.00571357 66.76318573 -55.51199041 75.18240665 -50.125 82.25 C-45.25669097 86.88648479 -41.65380405 87.94353262 -35 88.125 C-29.12978946 87.95842195 -25.31890096 87.38748654 -20.921875 83.2734375 C-13.00606048 74.85808129 -13.00301092 65.93996814 -13.0625 54.875 C-13.04251953 53.56402344 -13.02253906 52.25304687 -13.00195312 50.90234375 C-13.00641742 42.00053711 -13.72432496 34.33733646 -19.53515625 27.27734375 C-20.20417969 26.75269531 -20.87320312 26.22804688 -21.5625 25.6875 C-22.23410156 25.13964844 -22.90570312 24.59179688 -23.59765625 24.02734375 C-32.25150233 18.21665038 -43.68548356 21.21059878 -50.6875 27.8125 Z " fill="#FFFFFF" transform="translate(1898.5,307.25)"/>
<path d="M0 0 C13.30725262 10.38233636 19.2089673 23.6126097 22.05859375 39.953125 C24.34120492 59.58762107 23.32711135 82.1366933 11.1875 98.5625 C1.87012305 109.66704623 -10.00226836 116.69586946 -24.6315918 118.03710938 C-27.90554162 118.15071725 -31.16188796 118.15974426 -34.4375 118.125 C-35.52740234 118.13660156 -36.61730469 118.14820313 -37.74023438 118.16015625 C-52.46294783 118.10766886 -65.74353497 113.95992129 -76.65625 103.78515625 C-90.34548884 88.67478881 -93.18058017 68.02105799 -92.40673828 48.38330078 C-91.48195682 34.74203563 -88.44466612 22.0566407 -80.5 10.75 C-80.06042969 10.11449219 -79.62085938 9.47898437 -79.16796875 8.82421875 C-62.10692155 -13.35022589 -22.03505792 -14.2365058 0 0 Z M-50.6875 27.8125 C-55.98463881 36.39751807 -57.13991378 44.81612179 -57 54.75 C-57.01546875 55.84828125 -57.0309375 56.9465625 -57.046875 58.078125 C-57.00571357 66.76318573 -55.51199041 75.18240665 -50.125 82.25 C-45.25669097 86.88648479 -41.65380405 87.94353262 -35 88.125 C-29.12978946 87.95842195 -25.31890096 87.38748654 -20.921875 83.2734375 C-13.00606048 74.85808129 -13.00301092 65.93996814 -13.0625 54.875 C-13.04251953 53.56402344 -13.02253906 52.25304687 -13.00195312 50.90234375 C-13.00641742 42.00053711 -13.72432496 34.33733646 -19.53515625 27.27734375 C-20.20417969 26.75269531 -20.87320312 26.22804688 -21.5625 25.6875 C-22.23410156 25.13964844 -22.90570312 24.59179688 -23.59765625 24.02734375 C-32.25150233 18.21665038 -43.68548356 21.21059878 -50.6875 27.8125 Z " fill="#FFFFFF" transform="translate(1375.5,307.25)"/>
<path d="M0 0 C13.30725262 10.38233636 19.2089673 23.6126097 22.05859375 39.953125 C24.34120492 59.58762107 23.32711135 82.1366933 11.1875 98.5625 C1.87012305 109.66704623 -10.00226836 116.69586946 -24.6315918 118.03710938 C-27.90554162 118.15071725 -31.16188796 118.15974426 -34.4375 118.125 C-35.52740234 118.13660156 -36.61730469 118.14820313 -37.74023438 118.16015625 C-52.46294783 118.10766886 -65.74353497 113.95992129 -76.65625 103.78515625 C-90.34548884 88.67478881 -93.18058017 68.02105799 -92.40673828 48.38330078 C-91.48195682 34.74203563 -88.44466612 22.0566407 -80.5 10.75 C-80.06042969 10.11449219 -79.62085938 9.47898437 -79.16796875 8.82421875 C-62.10692155 -13.35022589 -22.03505792 -14.2365058 0 0 Z M-50.6875 27.8125 C-55.98463881 36.39751807 -57.13991378 44.81612179 -57 54.75 C-57.01546875 55.84828125 -57.0309375 56.9465625 -57.046875 58.078125 C-57.00571357 66.76318573 -55.51199041 75.18240665 -50.125 82.25 C-45.25669097 86.88648479 -41.65380405 87.94353262 -35 88.125 C-29.12978946 87.95842195 -25.31890096 87.38748654 -20.921875 83.2734375 C-13.00606048 74.85808129 -13.00301092 65.93996814 -13.0625 54.875 C-13.04251953 53.56402344 -13.02253906 52.25304687 -13.00195312 50.90234375 C-13.00641742 42.00053711 -13.72432496 34.33733646 -19.53515625 27.27734375 C-20.20417969 26.75269531 -20.87320313 26.22804688 -21.5625 25.6875 C-22.23410156 25.13964844 -22.90570313 24.59179688 -23.59765625 24.02734375 C-32.25150233 18.21665038 -43.68548356 21.21059878 -50.6875 27.8125 Z " fill="#FFFFFF" transform="translate(371.5,307.25)"/>
<path d="M0 0 C7.14506312 5.49981832 12.21819963 12.08649307 14.5625 20.8125 C15.0575 26.7525 15.0575 26.7525 15.5625 32.8125 C4.6725 32.8125 -6.2175 32.8125 -17.4375 32.8125 C-18.4275 30.1725 -19.4175 27.5325 -20.4375 24.8125 C-22.7909336 22.20672888 -24.00381708 21.86899509 -27.49609375 21.4140625 C-28.61113281 21.42179687 -29.72617188 21.42953125 -30.875 21.4375 C-32.54369141 21.42589844 -32.54369141 21.42589844 -34.24609375 21.4140625 C-37.73630975 21.8498055 -39.63480072 22.72451456 -42.4375 24.8125 C-43.45272821 27.06050531 -43.45639129 28.49134804 -43.3125 30.9375 C-42.590121 32.99963968 -42.590121 32.99963968 -40.42578125 33.7890625 C-36.58239507 35.10535946 -32.68892759 36.0768688 -28.75 37.0625 C5.91585884 46.0525598 5.91585884 46.0525598 14.40625 59.50390625 C17.42929275 65.53977878 17.94994226 70.85956588 17.9375 77.5 C17.93588867 78.3883252 17.93427734 79.27665039 17.93261719 80.19189453 C17.70727224 92.27877915 13.37910851 101.70255999 4.6796875 110.140625 C-5.51608323 118.19189783 -17.67064199 119.15817623 -30.125 119.125 C-31.31544922 119.14111328 -32.50589844 119.15722656 -33.73242188 119.17382812 C-46.95773261 119.1810197 -60.37178514 117.06713739 -70.53515625 107.92578125 C-79.65960066 98.06518209 -81.4375 87.98255591 -81.4375 74.8125 C-70.5475 74.8125 -59.6575 74.8125 -48.4375 74.8125 C-47.7775 77.7825 -47.1175 80.7525 -46.4375 83.8125 C-44.51425139 86.21656076 -43.15910933 87.45169534 -40.4375 88.8125 C-37.63398462 88.93729416 -34.8661626 88.99767138 -32.0625 89 C-31.29421875 89.01224609 -30.5259375 89.02449219 -29.734375 89.03710938 C-24.25885351 89.14073819 -24.25885351 89.14073819 -19.4375 86.8125 C-18.26639551 83.9528994 -18.26639551 83.9528994 -18.4375 80.8125 C-21.23579617 77.29142117 -23.78721891 76.07362532 -28.0625 74.875 C-29.20847656 74.54371094 -30.35445312 74.21242188 -31.53515625 73.87109375 C-34.30741705 73.10877571 -37.08795463 72.38162184 -39.87109375 71.66015625 C-54.4252494 67.8461127 -68.08316821 63.39574325 -76.39453125 50.03515625 C-79.10526016 44.25835943 -79.7996192 38.77186633 -79.75 32.5 C-79.74436035 31.75234375 -79.7387207 31.0046875 -79.73291016 30.234375 C-79.51915976 20.46534698 -76.99464095 12.25499332 -70.4375 4.8125 C-52.67210749 -10.95818178 -19.84981867 -12.70152087 0 0 Z " fill="#FFFFFF" transform="translate(2141.4375,306.1875)"/>
<path d="M0 0 C7.14506312 5.49981832 12.21819963 12.08649307 14.5625 20.8125 C15.0575 26.7525 15.0575 26.7525 15.5625 32.8125 C4.6725 32.8125 -6.2175 32.8125 -17.4375 32.8125 C-18.4275 30.1725 -19.4175 27.5325 -20.4375 24.8125 C-22.7909336 22.20672888 -24.00381708 21.86899509 -27.49609375 21.4140625 C-28.61113281 21.42179687 -29.72617188 21.42953125 -30.875 21.4375 C-32.54369141 21.42589844 -32.54369141 21.42589844 -34.24609375 21.4140625 C-37.73630975 21.8498055 -39.63480072 22.72451456 -42.4375 24.8125 C-43.45272821 27.06050531 -43.45639129 28.49134804 -43.3125 30.9375 C-42.590121 32.99963968 -42.590121 32.99963968 -40.42578125 33.7890625 C-36.58239507 35.10535946 -32.68892759 36.0768688 -28.75 37.0625 C5.91585884 46.0525598 5.91585884 46.0525598 14.40625 59.50390625 C17.42929275 65.53977878 17.94994226 70.85956588 17.9375 77.5 C17.93588867 78.3883252 17.93427734 79.27665039 17.93261719 80.19189453 C17.70727224 92.27877915 13.37910851 101.70255999 4.6796875 110.140625 C-5.51608323 118.19189783 -17.67064199 119.15817623 -30.125 119.125 C-31.31544922 119.14111328 -32.50589844 119.15722656 -33.73242188 119.17382812 C-46.95773261 119.1810197 -60.37178514 117.06713739 -70.53515625 107.92578125 C-79.65960066 98.06518209 -81.4375 87.98255591 -81.4375 74.8125 C-70.5475 74.8125 -59.6575 74.8125 -48.4375 74.8125 C-47.7775 77.7825 -47.1175 80.7525 -46.4375 83.8125 C-44.51425139 86.21656076 -43.15910933 87.45169534 -40.4375 88.8125 C-37.63398462 88.93729416 -34.8661626 88.99767138 -32.0625 89 C-31.29421875 89.01224609 -30.5259375 89.02449219 -29.734375 89.03710938 C-24.25885351 89.14073819 -24.25885351 89.14073819 -19.4375 86.8125 C-18.26639551 83.9528994 -18.26639551 83.9528994 -18.4375 80.8125 C-21.23579617 77.29142117 -23.78721891 76.07362532 -28.0625 74.875 C-29.20847656 74.54371094 -30.35445312 74.21242188 -31.53515625 73.87109375 C-34.30741705 73.10877571 -37.08795463 72.38162184 -39.87109375 71.66015625 C-54.4252494 67.8461127 -68.08316821 63.39574325 -76.39453125 50.03515625 C-79.10526016 44.25835943 -79.7996192 38.77186633 -79.75 32.5 C-79.74436035 31.75234375 -79.7387207 31.0046875 -79.73291016 30.234375 C-79.51915976 20.46534698 -76.99464095 12.25499332 -70.4375 4.8125 C-52.67210749 -10.95818178 -19.84981867 -12.70152087 0 0 Z " fill="#FFFFFF" transform="translate(1253.4375,306.1875)"/>
<path d="M0 0 C7.14506312 5.49981832 12.21819963 12.08649307 14.5625 20.8125 C15.0575 26.7525 15.0575 26.7525 15.5625 32.8125 C4.6725 32.8125 -6.2175 32.8125 -17.4375 32.8125 C-18.4275 30.1725 -19.4175 27.5325 -20.4375 24.8125 C-22.7909336 22.20672888 -24.00381708 21.86899509 -27.49609375 21.4140625 C-28.61113281 21.42179687 -29.72617188 21.42953125 -30.875 21.4375 C-32.54369141 21.42589844 -32.54369141 21.42589844 -34.24609375 21.4140625 C-37.73630975 21.8498055 -39.63480072 22.72451456 -42.4375 24.8125 C-43.45272821 27.06050531 -43.45639129 28.49134804 -43.3125 30.9375 C-42.590121 32.99963968 -42.590121 32.99963968 -40.42578125 33.7890625 C-36.58239507 35.10535946 -32.68892759 36.0768688 -28.75 37.0625 C5.91585884 46.0525598 5.91585884 46.0525598 14.40625 59.50390625 C17.42929275 65.53977878 17.94994226 70.85956588 17.9375 77.5 C17.93588867 78.3883252 17.93427734 79.27665039 17.93261719 80.19189453 C17.70727224 92.27877915 13.37910851 101.70255999 4.6796875 110.140625 C-5.51608323 118.19189783 -17.67064199 119.15817623 -30.125 119.125 C-31.31544922 119.14111328 -32.50589844 119.15722656 -33.73242188 119.17382812 C-46.95773261 119.1810197 -60.37178514 117.06713739 -70.53515625 107.92578125 C-79.65960066 98.06518209 -81.4375 87.98255591 -81.4375 74.8125 C-70.5475 74.8125 -59.6575 74.8125 -48.4375 74.8125 C-47.7775 77.7825 -47.1175 80.7525 -46.4375 83.8125 C-44.51425139 86.21656076 -43.15910933 87.45169534 -40.4375 88.8125 C-37.63398462 88.93729416 -34.8661626 88.99767138 -32.0625 89 C-31.29421875 89.01224609 -30.5259375 89.02449219 -29.734375 89.03710938 C-24.25885351 89.14073819 -24.25885351 89.14073819 -19.4375 86.8125 C-18.26639551 83.9528994 -18.26639551 83.9528994 -18.4375 80.8125 C-21.23579617 77.29142117 -23.78721891 76.07362532 -28.0625 74.875 C-29.20847656 74.54371094 -30.35445312 74.21242188 -31.53515625 73.87109375 C-34.30741705 73.10877571 -37.08795463 72.38162184 -39.87109375 71.66015625 C-54.4252494 67.8461127 -68.08316821 63.39574325 -76.39453125 50.03515625 C-79.10526016 44.25835943 -79.7996192 38.77186633 -79.75 32.5 C-79.74436035 31.75234375 -79.7387207 31.0046875 -79.73291016 30.234375 C-79.51915976 20.46534698 -76.99464095 12.25499332 -70.4375 4.8125 C-52.67210749 -10.95818178 -19.84981867 -12.70152087 0 0 Z " fill="#FFFFFF" transform="translate(249.4375,306.1875)"/>
<path d="M0 0 C30.36 0 60.72 0 92 0 C92 9.57 92 19.14 92 29 C73.19 29 54.38 29 35 29 C35 34.61 35 40.22 35 46 C51.17 46 67.34 46 84 46 C84 55.24 84 64.48 84 74 C67.83 74 51.66 74 35 74 C35 80.27 35 86.54 35 93 C54.14 93 73.28 93 93 93 C93 102.57 93 112.14 93 122 C62.31 122 31.62 122 0 122 C0 81.74 0 41.48 0 0 Z " fill="#FFFFFF" transform="translate(1015,301)"/>
<path d="M0 0 C11.55 0 23.1 0 35 0 C35.01417969 5.65898437 35.02835938 11.31796875 35.04296875 17.1484375 C35.06304262 20.74875933 35.08457583 24.34895543 35.11132812 27.94921875 C35.15358676 33.6548347 35.19064738 39.36013168 35.19555664 45.06591797 C35.19985751 49.66981431 35.22846753 54.27299464 35.27343178 58.87666702 C35.28634986 60.62674401 35.29073477 62.37690693 35.28615379 64.1270256 C35.15065776 77.83096703 35.15065776 77.83096703 41 90 C45.45521306 93.69456692 50.56919277 93.50970219 56.15625 93.34375 C60.11174676 92.86561303 62.15087794 91.77789401 65 89 C69.55680546 82.77678996 70.1438506 76.86210484 70.20532227 69.36401367 C70.21522186 68.61225861 70.22512146 67.86050354 70.23532104 67.08596802 C70.26678432 64.61333309 70.29163314 62.14067899 70.31640625 59.66796875 C70.3369889 57.94875096 70.35798571 56.22953809 70.37937927 54.5103302 C70.4344646 49.99439482 70.48393337 45.47841479 70.53222656 40.96240234 C70.59139325 35.53910713 70.65754646 30.11589317 70.72252655 24.6926651 C70.82036564 16.46182653 70.90933819 8.23093485 71 0 C82.55 0 94.1 0 106 0 C106.08021762 18.07570341 106.08021762 18.07570341 106.09765625 25.87890625 C106.10953566 31.16914973 106.12347052 36.45932292 106.15087891 41.74951172 C106.17287423 46.02245343 106.18462382 50.29531957 106.18975449 54.5683136 C106.19340302 56.1850961 106.20052482 57.80187524 106.21146011 59.41862488 C106.33315468 78.18554019 106.03834189 97.77010179 92 112 C80.51260498 121.89683263 68.13387345 124.18376282 53.4375 124.25 C52.32052734 124.270625 51.20355469 124.29125 50.05273438 124.3125 C36.00963264 124.37762743 23.18808363 121.03600059 12.6875 111.3125 C0.07934058 97.67088489 -0.45146981 81.11189532 -0.29296875 63.57421875 C-0.28736058 61.73192188 -0.28309627 59.88962048 -0.28010559 58.0473175 C-0.26875284 53.24198651 -0.23937021 48.43693561 -0.20599365 43.63171387 C-0.17508424 38.71089464 -0.16155603 33.79002933 -0.14648438 28.86914062 C-0.11448951 19.24595206 -0.06180198 9.62304334 0 0 Z " fill="#FFFFFF" transform="translate(1513,301)"/>
<path d="M0 0 C13.53 0 27.06 0 41 0 C50.75122046 28.83575194 59.91737043 57.84497435 69.02441406 86.88970947 C69.91103342 89.71636338 70.79892385 92.54261308 71.6875 95.36865234 C73.00416304 99.55697501 74.31576477 103.74684936 75.625 107.9375 C75.98480957 109.08379883 76.34461914 110.23009766 76.71533203 111.41113281 C77.02841309 112.41885742 77.34149414 113.42658203 77.6640625 114.46484375 C77.92654785 115.306521 78.1890332 116.14819824 78.45947266 117.01538086 C79 119 79 119 79 121 C66.79 121 54.58 121 42 121 C38 107 38 107 38 104 C26.12 104 14.24 104 2 104 C0.68 109.61 -0.64 115.22 -2 121 C-13.88 121 -25.76 121 -38 121 C-34.62493684 108.6247684 -34.62493684 108.6247684 -33.06152344 103.71386719 C-32.70924683 102.60351608 -32.35697021 101.49316498 -31.99401855 100.34916687 C-31.61958618 99.17691055 -31.24515381 98.00465424 -30.859375 96.796875 C-30.45980591 95.53974197 -30.06023682 94.28260895 -29.64855957 92.98738098 C-28.57352093 89.60531025 -27.49571093 86.22412894 -26.41731262 82.8431282 C-25.29711032 79.32944218 -24.17948536 75.81493646 -23.06152344 72.30053711 C-20.59063378 64.53497381 -18.11579976 56.77067103 -15.63989258 49.00670624 C-14.62428709 45.82176248 -13.60904686 42.63670231 -12.59375 39.45166016 C-8.4007763 26.29952552 -4.20260516 13.14906008 0 0 Z M19 37 C15.7 50.2 12.4 63.4 9 77 C16.26 77 23.52 77 31 77 C27.7 63.8 24.4 50.6 21 37 C20.34 37 19.68 37 19 37 Z " fill="#FFFFFF" transform="translate(806,302)"/>
<path d="M0 0 C28.38 0 56.76 0 86 0 C86 9.57 86 19.14 86 29 C69.17 29 52.34 29 35 29 C35 35.93 35 42.86 35 50 C49.52 50 64.04 50 79 50 C79 59.24 79 68.48 79 78 C64.48 78 49.96 78 35 78 C35 92.52 35 107.04 35 122 C23.45 122 11.9 122 0 122 C0 81.74 0 41.48 0 0 Z " fill="#FFFFFF" transform="translate(412,301)"/>
<path d="M0 0 C34.32 0 68.64 0 104 0 C104 10.23 104 20.46 104 31 C92.45 31 80.9 31 69 31 C69 61.03 69 91.06 69 122 C57.78 122 46.56 122 35 122 C35 91.97 35 61.94 35 31 C23.45 31 11.9 31 0 31 C0 20.77 0 10.54 0 0 Z " fill="#FFFFFF" transform="translate(1632,301)"/>
<path d="M0 0 C34.32 0 68.64 0 104 0 C104 10.23 104 20.46 104 31 C92.45 31 80.9 31 69 31 C69 61.03 69 91.06 69 122 C57.78 122 46.56 122 35 122 C35 91.97 35 61.94 35 31 C23.45 31 11.9 31 0 31 C0 20.77 0 10.54 0 0 Z " fill="#FFFFFF" transform="translate(506,301)"/>
<path d="M0 0 C11.55 0 23.1 0 35 0 C35 30.03 35 60.06 35 91 C52.82 91 70.64 91 89 91 C89 101.23 89 111.46 89 122 C59.63 122 30.26 122 0 122 C0 81.74 0 41.48 0 0 Z " fill="#FFFFFF" transform="translate(1415,301)"/>
<path d="M0 0 C11.55 0 23.1 0 35 0 C35 40.26 35 80.52 35 122 C23.45 122 11.9 122 0 122 C0 81.74 0 41.48 0 0 Z " fill="#FFFFFF" transform="translate(1752,301)"/>
</svg>
